<svg width="57" height="57" viewBox="0 0 57 57" fill="none" xmlns="http://www.w3.org/2000/svg">
<path d="M17.2647 51.4016C16.1034 51.4016 15.1134 50.9881 14.2947 50.1612C13.4761 49.3342 13.0667 48.3401 13.0667 47.1788C13.0667 46.0176 13.4802 45.0276 14.3071 44.2089C15.1341 43.3903 16.1282 42.9809 17.2895 42.9809C18.4507 42.9809 19.4407 43.3944 20.2594 44.2213C21.078 45.0483 21.4874 46.0424 21.4874 47.2036C21.4874 48.3649 21.0739 49.3549 20.247 50.1736C19.42 50.9922 18.4259 51.4016 17.2647 51.4016ZM40.6553 51.4016C39.4941 51.4016 38.5041 50.9881 37.6854 50.1612C36.8667 49.3342 36.4574 48.3401 36.4574 47.1788C36.4574 46.0176 36.8709 45.0276 37.6978 44.2089C38.5248 43.3903 39.5189 42.9809 40.6801 42.9809C41.8414 42.9809 42.8314 43.3944 43.65 44.2213C44.4687 45.0483 44.878 46.0424 44.878 47.2036C44.878 48.3649 44.4646 49.3549 43.6376 50.1736C42.8107 50.9922 41.8166 51.4016 40.6553 51.4016ZM12.482 9.29837H46.929C47.8243 9.29837 48.5054 9.7077 48.9725 10.5264C49.4396 11.3451 49.4392 12.1637 48.9714 12.9824L41.0771 27.1922C40.6482 27.9329 40.0915 28.5274 39.407 28.9758C38.7225 29.4241 37.9732 29.6482 37.1591 29.6482H19.4407L16.166 35.7298H44.878V39.2384H16.6923C15.0549 39.2384 13.8757 38.6926 13.1544 37.6011C12.4332 36.5095 12.443 35.2815 13.1837 33.917L16.9262 27.0168L8.03774 8.18731H3.47656V4.67871H10.3183L12.482 9.29837Z" fill="#F24333"/>
</svg>
