<svg width="57" height="57" viewBox="0 0 57 57" fill="none" xmlns="http://www.w3.org/2000/svg">
<path d="M4.67773 51.46V8.18731C4.67773 7.25168 5.02859 6.43301 5.73031 5.73129C6.43203 5.02957 7.25071 4.67871 8.18633 4.67871H47.9505C48.8861 4.67871 49.7048 5.02957 50.4065 5.73129C51.1082 6.43301 51.4591 7.25168 51.4591 8.18731V38.5952C51.4591 39.5308 51.1082 40.3495 50.4065 41.0512C49.7048 41.7529 48.8861 42.1038 47.9505 42.1038H14.034L4.67773 51.46ZM14.034 32.806H32.3372V29.2974H14.034V32.806ZM14.034 25.204H42.1028V21.6954H14.034V25.204ZM14.034 17.6021H42.1028V14.0935H14.034V17.6021Z" fill="#F24333"/>
</svg>
