<svg width="66" height="66" viewBox="0 0 66 66" fill="none" xmlns="http://www.w3.org/2000/svg">
<path fill-rule="evenodd" clip-rule="evenodd" d="M13.8623 44.1586C14.9879 44.1586 15.9004 45.0711 15.9004 46.1967V51.6316C15.9004 52.0068 16.2045 52.3109 16.5797 52.3109H49.1891C49.5643 52.3109 49.8684 52.0068 49.8684 51.6316V46.1967C49.8684 45.0711 50.7809 44.1586 51.9065 44.1586C53.0321 44.1586 53.9446 45.0711 53.9446 46.1967V51.6316C53.9446 54.258 51.8155 56.3871 49.1891 56.3871H16.5797C13.9533 56.3871 11.8242 54.258 11.8242 51.6316V46.1967C11.8242 45.0711 12.7367 44.1586 13.8623 44.1586Z" fill="#F24333"/>
<path fill-rule="evenodd" clip-rule="evenodd" d="M29.4546 43.8251C28.0568 43.8251 26.8908 42.7568 26.7687 41.3643C26.3512 36.6014 26.2775 31.8151 26.5481 27.0426C25.877 27.0055 25.2061 26.9625 24.5355 26.9136L20.4877 26.6186C18.9271 26.5048 18.0547 24.7646 18.8972 23.4461C21.7833 18.9294 25.502 15.0029 29.8552 11.8758L31.4769 10.7109C32.318 10.1068 33.4508 10.1068 34.2918 10.7109L35.9135 11.8758C40.2667 15.0029 43.9855 18.9294 46.8716 23.4461C47.7141 24.7646 46.8417 26.5048 45.2811 26.6185L41.2333 26.9136C40.5627 26.9625 39.8918 27.0055 39.2206 27.0426C39.4912 31.8151 39.4176 36.6014 39.0001 41.3643C38.878 42.7568 37.712 43.8251 36.3142 43.8251H29.4546Z" fill="#F24333"/>
</svg>
