<svg width="57" height="57" viewBox="0 0 57 57" fill="none" xmlns="http://www.w3.org/2000/svg">
<path d="M13.1191 41.2266C15.5751 39.6672 18.0019 38.488 20.3995 37.6888C22.797 36.8896 25.3992 36.49 28.2061 36.49C31.013 36.49 33.6249 36.8896 36.042 37.6888C38.459 38.488 40.8955 39.6672 43.3515 41.2266C45.0669 39.1215 46.2851 36.9968 47.0063 34.8527C47.7276 32.7085 48.0882 30.4474 48.0882 28.0694C48.0882 22.4166 46.1877 17.6898 42.3867 13.8888C38.5857 10.0878 33.8588 8.18731 28.2061 8.18731C22.5533 8.18731 17.8265 10.0878 14.0255 13.8888C10.2245 17.6898 8.32403 22.4166 8.32403 28.0694C8.32403 30.4474 8.69438 32.7085 9.43509 34.8527C10.1758 36.9968 11.4038 39.1215 13.1191 41.2266ZM28.1952 29.8237C25.9414 29.8237 24.0445 29.0501 22.5046 27.503C20.9647 25.9558 20.1948 24.0553 20.1948 21.8015C20.1948 19.5477 20.9684 17.6508 22.5155 16.1109C24.0626 14.571 25.9631 13.8011 28.217 13.8011C30.4708 13.8011 32.3677 14.5746 33.9076 16.1218C35.4475 17.6689 36.2174 19.5694 36.2174 21.8232C36.2174 24.0771 35.4438 25.974 33.8967 27.5138C32.3496 29.0537 30.4491 29.8237 28.1952 29.8237ZM28.1824 51.46C24.941 51.46 21.8949 50.846 19.044 49.618C16.1931 48.39 13.7132 46.7137 11.6043 44.589C9.49541 42.4644 7.83672 39.9822 6.62821 37.1426C5.41969 34.3029 4.81543 31.2688 4.81543 28.0401C4.81543 24.8115 5.42943 21.7773 6.65744 18.9377C7.88545 16.0981 9.56179 13.6256 11.6864 11.5205C13.8111 9.41532 16.2932 7.74874 19.1329 6.52073C21.9725 5.29272 25.0067 4.67871 28.2353 4.67871C31.464 4.67871 34.4981 5.29272 37.3377 6.52073C40.1774 7.74874 42.6498 9.41532 44.755 11.5205C46.8601 13.6256 48.5267 16.1012 49.7547 18.947C50.9827 21.7929 51.5968 24.8285 51.5968 28.0538C51.5968 31.2792 50.9827 34.3102 49.7547 37.1469C48.5267 39.9837 46.8601 42.4644 44.755 44.589C42.6498 46.7137 40.1718 48.39 37.3209 49.618C34.47 50.846 31.4238 51.46 28.1824 51.46Z" fill="#F24333"/>
</svg>
