<svg width="54" height="54" viewBox="0 0 54 54" fill="none" xmlns="http://www.w3.org/2000/svg">
<g clip-path="url(#clip0_257_342)">
<path d="M9.50011 21.651C14.2911 32.0857 22.8161 40.382 33.415 44.8795L35.114 45.6365C39.001 47.3683 43.5704 46.0526 45.9412 42.5188L48.1614 39.2095C48.8833 38.1336 48.6635 36.6845 47.6551 35.8709L40.1255 29.7965C39.0195 28.9042 37.3933 29.112 36.5472 30.2537L34.2179 33.3969C28.2408 30.4485 23.3882 25.5959 20.4399 19.6188L23.583 17.2895C24.7246 16.4435 24.9325 14.8172 24.0402 13.7112L17.9656 6.18138C17.1522 5.17317 15.7034 4.95326 14.6275 5.67468L11.2954 7.90892C7.73956 10.2932 6.43111 14.9003 8.20294 18.7977L9.49816 21.6467L9.50011 21.651Z" fill="#564D4A"/>
</g>
<defs>
<clipPath id="clip0_257_342">
<rect width="54" height="54" fill="white"/>
</clipPath>
</defs>
</svg>
