<svg width="54" height="54" viewBox="0 0 54 54" fill="none" xmlns="http://www.w3.org/2000/svg">
<path d="M7.875 45C6.975 45 6.1875 44.6625 5.5125 43.9875C4.8375 43.3125 4.5 42.525 4.5 41.625V12.375C4.5 11.475 4.8375 10.6875 5.5125 10.0125C6.1875 9.3375 6.975 9 7.875 9H46.125C47.025 9 47.8125 9.3375 48.4875 10.0125C49.1625 10.6875 49.5 11.475 49.5 12.375V41.625C49.5 42.525 49.1625 43.3125 48.4875 43.9875C47.8125 44.6625 47.025 45 46.125 45H7.875ZM27 28.0125L46.125 15.4688V12.375L27 24.6375L7.875 12.375V15.4688L27 28.0125Z" fill="#564D4A"/>
</svg>
