<svg width="52" height="52" viewBox="0 0 52 52" fill="none" xmlns="http://www.w3.org/2000/svg">
<path d="M11.9165 47.667C11.0228 47.667 10.2576 47.3488 9.62119 46.7123C8.98473 46.0758 8.6665 45.3107 8.6665 44.417V20.9087C8.6665 20.0149 8.98473 19.2498 9.62119 18.6133C10.2576 17.9769 11.0228 17.6587 11.9165 17.6587H15.7082V12.4587C15.7082 9.6113 16.7122 7.18418 18.7202 5.17731C20.7282 3.17043 23.1566 2.16699 26.0056 2.16699C28.8545 2.16699 31.2811 3.17043 33.2853 5.17731C35.2894 7.18418 36.2915 9.6113 36.2915 12.4587V17.6587H40.0832C40.9769 17.6587 41.742 17.9769 42.3785 18.6133C43.0149 19.2498 43.3332 20.0149 43.3332 20.9087V44.417C43.3332 45.3107 43.0149 46.0758 42.3785 46.7123C41.742 47.3488 40.9769 47.667 40.0832 47.667H11.9165ZM26.0089 36.8337C27.1584 36.8337 28.1394 36.4359 28.9519 35.6403C29.7644 34.8447 30.1707 33.8884 30.1707 32.7712C30.1707 31.6878 29.7614 30.7038 28.9428 29.8191C28.1243 28.9344 27.1402 28.492 25.9907 28.492C24.8412 28.492 23.8603 28.9344 23.0478 29.8191C22.2353 30.7038 21.829 31.6969 21.829 32.7982C21.829 33.8996 22.2383 34.8475 23.0569 35.642C23.8754 36.4364 24.8594 36.8337 26.0089 36.8337ZM18.9582 17.6587H33.0415V12.4587C33.0415 10.5026 32.3575 8.84002 30.9896 7.47083C29.6216 6.1016 27.9605 5.41699 26.0062 5.41699C24.052 5.41699 22.3887 6.1016 21.0165 7.47083C19.6443 8.84002 18.9582 10.5026 18.9582 12.4587V17.6587Z" fill="#564D4A"/>
</svg>
