<svg width="60" height="60" viewBox="0 0 60 60" fill="none" xmlns="http://www.w3.org/2000/svg">
<path d="M30 9.375C24.8223 9.375 20.625 13.5723 20.625 18.75C20.625 23.9277 24.8223 28.125 30 28.125C35.1777 28.125 39.375 23.9277 39.375 18.75C39.375 13.5723 35.1777 9.375 30 9.375Z" fill="#564D4A"/>
<path d="M20 33.125C14.8223 33.125 10.625 37.3223 10.625 42.5V45.4707C10.625 47.3538 11.9897 48.9594 13.8482 49.2628C24.5452 51.0093 35.4548 51.0093 46.1518 49.2628C48.0103 48.9594 49.375 47.3538 49.375 45.4707V42.5C49.375 37.3223 45.1777 33.125 40 33.125H39.1478C38.6866 33.125 38.2283 33.1979 37.7898 33.3411L35.626 34.0476C31.9703 35.2413 28.0297 35.2413 24.374 34.0476L22.2102 33.3411C21.7717 33.1979 21.3134 33.125 20.8522 33.125H20Z" fill="#564D4A"/>
</svg>
