<svg width="68" height="68" viewBox="0 0 68 68" fill="none" xmlns="http://www.w3.org/2000/svg">
<path d="M5.6665 62.3333V9.91663C5.6665 8.78329 6.0915 7.79163 6.9415 6.94163C7.7915 6.09163 8.78317 5.66663 9.9165 5.66663H58.0832C59.2165 5.66663 60.2082 6.09163 61.0582 6.94163C61.9082 7.79163 62.3332 8.78329 62.3332 9.91663V46.75C62.3332 47.8833 61.9082 48.875 61.0582 49.725C60.2082 50.575 59.2165 51 58.0832 51H16.9998L5.6665 62.3333ZM16.9998 39.7375H39.1707V35.4875H16.9998V39.7375ZM16.9998 30.5291H50.9998V26.2791H16.9998V30.5291ZM16.9998 21.3208H50.9998V17.0708H16.9998V21.3208Z" fill="#5C5470"/>
</svg>
