<svg width="1440" height="923" viewBox="0 0 1440 923" fill="none" xmlns="http://www.w3.org/2000/svg">
<mask id="mask0_334_158" style="mask-type:alpha" maskUnits="userSpaceOnUse" x="0" y="0" width="1440" height="923">
<rect width="1440" height="923" fill="#D9D9D9"/>
</mask>
<g mask="url(#mask0_334_158)">
<path d="M1078 481.765C1268.02 147.569 1573.5 296.765 1693.5 407.765V933.765H534C460.333 933.098 320.4 875.265 350 649.265C379.6 423.265 615.667 507.431 730 577.765C844.333 648.098 920.5 758.765 1078 481.765Z" fill="#564D4A" stroke="black"/>
<path d="M277.5 357.765C187.369 154.832 25.9998 76.7646 -143.544 168.288L-303 992.264L999.209 1023.35C1006.96 965.936 994.505 823.61 882.736 713.584C743.025 576.052 556.187 671.635 464.5 659.265C372.812 646.894 359 541.265 277.5 357.765Z" fill="#EED5C7"/>
</g>
</svg>
