<svg width="35" height="39" viewBox="0 0 35 39" fill="none" xmlns="http://www.w3.org/2000/svg">
<path d="M3.00015 38.4231C1.83185 38.4231 0.884766 37.476 0.884766 36.3077V14.0962C0.884766 13.4304 1.19825 12.8034 1.73092 12.4039L16.5386 1.29811C17.2908 0.734011 18.3249 0.734012 19.0771 1.29811L33.8848 12.4039C34.4174 12.8034 34.7309 13.4304 34.7309 14.0962V36.3077C34.7309 37.476 33.7838 38.4231 32.6155 38.4231H24.154C22.9857 38.4231 22.0386 37.476 22.0386 36.3077V25.7308C22.0386 24.5625 21.0915 23.6154 19.9232 23.6154H15.6925C14.5242 23.6154 13.5771 24.5625 13.5771 25.7308V36.3077C13.5771 37.476 12.63 38.4231 11.4617 38.4231H3.00015Z" fill="#FF9A6C"/>
</svg>
