<svg width="793" height="209" viewBox="0 0 793 209" fill="none" xmlns="http://www.w3.org/2000/svg">
<rect x="34.3745" width="186.346" height="186.346" rx="15.8304" fill="#FAF0E6"/>
<path d="M69 78.8873V181.929C69 184.177 70.8225 186 73.0707 186H180.929C183.177 186 185 184.177 185 181.929V80.7938C185 77.527 181.346 75.591 178.643 77.4259L129.529 110.769C128.122 111.724 126.27 111.705 124.884 110.72L75.4289 75.5694C72.7337 73.6537 69 75.5807 69 78.8873Z" fill="#E7D9CC"/>
<mask id="mask0_22_475" style="mask-type:alpha" maskUnits="userSpaceOnUse" x="201" y="32" width="55" height="42">
<rect x="201.272" y="32.3259" width="54.7279" height="40.9462" fill="#D9D9D9"/>
</mask>
<g mask="url(#mask0_22_475)">
<path d="M246.998 41.425H11.7452C10.9976 41.425 10.3916 42.0311 10.3916 42.7787C10.3916 43.0361 10.472 43.2997 10.6111 43.5163C29.8729 73.5141 45.8011 63.0316 53.9675 50.0832C55.722 47.3013 60.0138 46.971 62.0292 49.5701C79.6373 72.278 94.2468 62.1314 102.01 49.9731C103.77 47.2163 108.023 46.9077 110.021 49.4974C127.542 72.2093 141.837 62.2242 149.417 50.1174C151.165 47.3254 155.456 46.98 157.448 49.6031C175.82 73.7889 190.007 63.3566 197.353 50.5977C199.033 47.6802 203.485 47.2568 205.58 49.892C225.578 75.0471 242.084 56.94 248.309 43.4511C248.394 43.2653 248.436 43.067 248.436 42.8624C248.436 42.0686 247.792 41.425 246.998 41.425Z" fill="#FAF0E6"/>
</g>
<mask id="mask1_22_475" style="mask-type:alpha" maskUnits="userSpaceOnUse" x="0" y="32" width="56" height="42">
<rect width="56" height="40.9462" transform="matrix(-1 0 0 1 56 32.3259)" fill="#D9D9D9"/>
</mask>
<g mask="url(#mask1_22_475)">
<path d="M9.17184 41.425H249.969C250.714 41.425 251.317 42.0284 251.317 42.7728C251.317 43.0339 251.234 43.3007 251.091 43.519C231.291 73.6526 214.933 62.9331 206.613 49.9028C204.861 47.16 200.644 46.8236 198.63 49.3799C180.457 72.4464 165.388 62.0652 157.453 49.7945C155.696 47.0772 151.517 46.7619 149.52 49.3087C131.436 72.3783 116.692 62.1575 108.945 49.9366C107.2 47.1835 102.974 46.8451 100.981 49.4243C82.0222 73.9596 67.4027 63.2848 59.8995 50.4097C58.2214 47.5303 53.8429 47.1035 51.7498 49.697C31.218 75.1381 14.2585 56.9779 7.87172 43.4547C7.78287 43.2665 7.73985 43.0651 7.73985 42.8571C7.73985 42.0662 8.38097 41.425 9.17184 41.425Z" fill="#FAF0E6"/>
</g>
<mask id="mask2_22_475" style="mask-type:alpha" maskUnits="userSpaceOnUse" x="152" y="30" width="50" height="42">
<rect x="152.424" y="30.304" width="48.8481" height="40.9462" fill="#D9D9D9"/>
</mask>
<g mask="url(#mask2_22_475)">
<path d="M245.6 41.425H12.9573C12.2081 41.425 11.6008 42.0324 11.6008 42.7815C11.6008 43.0372 11.68 43.2991 11.8171 43.515C30.8254 73.4466 46.5514 63.079 54.6449 50.171C56.4008 47.3705 60.7282 47.0429 62.7441 49.6624C80.0863 72.1964 94.4797 62.1632 102.162 50.06C103.923 47.2845 108.208 46.9818 110.188 49.6061C127.28 72.2603 139.596 61.813 148.101 49.3462C149.992 46.5733 154.339 46.8733 156.019 49.7797C169.33 72.8194 187.4 62.9343 196.073 50.479C198.006 47.7031 202.632 47.3316 204.727 49.9866C224.474 75.0027 240.767 56.9215 246.915 43.4493C246.999 43.2647 247.04 43.068 247.04 42.865C247.04 42.0697 246.395 41.425 245.6 41.425Z" fill="#E7D9CC"/>
</g>
<mask id="mask3_22_475" style="mask-type:alpha" maskUnits="userSpaceOnUse" x="103" y="30" width="50" height="42">
<rect x="103.576" y="30.304" width="48.8481" height="40.9462" fill="#D9D9D9"/>
</mask>
<g mask="url(#mask3_22_475)">
<path d="M196.752 41.425H-35.8908C-36.64 41.425 -37.2473 42.0324 -37.2473 42.7815C-37.2473 43.0372 -37.1681 43.2991 -37.031 43.515C-18.0228 73.4466 -2.29677 63.079 5.79671 50.171C7.55264 47.3705 11.88 47.0429 13.896 49.6624C31.2382 72.1964 45.6316 62.1632 53.3135 50.06C55.0751 47.2845 59.3614 46.9817 61.3485 49.6004C78.3709 72.0333 90.9024 61.4214 99.2355 49.3392C101.142 46.5755 105.496 46.8768 107.197 49.7712C120.604 72.5825 139.233 61.616 147.543 49.866C149.421 47.2112 153.845 46.5949 156.332 48.6894C171.143 61.1613 192.079 56.2027 198.063 43.4531C198.149 43.2694 198.191 43.068 198.191 42.865C198.191 42.0697 197.547 41.425 196.752 41.425Z" fill="#FAF0E6"/>
</g>
<mask id="mask4_22_475" style="mask-type:alpha" maskUnits="userSpaceOnUse" x="56" y="30" width="48" height="41">
<rect x="56" y="30" width="47.576" height="40.9462" fill="#D9D9D9"/>
</mask>
<g mask="url(#mask4_22_475)">
<path d="M146.706 41.1211H-79.7926C-80.5455 41.1211 -81.1559 41.7314 -81.1559 42.4843C-81.1559 42.7358 -81.0795 42.9939 -80.9473 43.2078C-62.5356 72.9775 -47.2856 62.8892 -39.3645 50.0813C-37.6052 47.2367 -33.1926 46.9147 -31.1755 49.5828C-14.4593 71.6948 -0.574387 61.9353 6.91441 49.9685C8.67927 47.1484 13.043 46.8516 14.984 49.5536C31.6245 72.7187 42.9936 65.0228 51.7067 50.2832C53.5056 47.2399 58.2543 47.3841 60.0811 50.4108C73.0092 71.8303 90.6135 61.2851 98.6666 49.7864C100.558 47.0863 105.11 46.4615 107.652 48.5594C121.724 60.1693 142.256 55.7563 148.028 43.1452C148.111 42.9642 148.152 42.7662 148.152 42.5671C148.152 41.7685 147.504 41.1211 146.706 41.1211Z" fill="#E7D9CC"/>
</g>
<path fill-rule="evenodd" clip-rule="evenodd" d="M7.38672 41.9305L33.4881 3.21777C34.7492 1.34734 36.8575 0.226074 39.1134 0.226074H216.861C219.131 0.226074 221.25 1.36128 222.508 3.25077L248.259 41.9305H7.38672Z" fill="#FAF0E6"/>
<mask id="mask5_22_475" style="mask-type:alpha" maskUnits="userSpaceOnUse" x="7" y="0" width="242" height="42">
<path fill-rule="evenodd" clip-rule="evenodd" d="M7.38672 41.9305L33.4881 3.21777C34.7492 1.34734 36.8575 0.226074 39.1134 0.226074H216.861C219.131 0.226074 221.25 1.36128 222.508 3.25077L248.259 41.9305H7.38672Z" fill="#FAF0E6"/>
</mask>
<g mask="url(#mask5_22_475)">
<path d="M120 -87L103 46.5L55.9999 42L120 -87Z" fill="#E7D9CC"/>
<path d="M129.5 -90.5L153 45L201.272 41.9305L129.5 -90.5Z" fill="#E7D9CC"/>
</g>
<path d="M253.6 174.896C250.187 174.896 246.901 174.256 243.744 172.976C240.587 171.696 237.984 169.733 235.936 167.088C233.973 164.443 232.992 161.072 232.992 156.976C232.992 151.685 234.656 147.547 237.984 144.56C241.312 141.488 246.005 139.312 252.064 138.032L273.696 133.168V132.784C273.696 128.261 272.373 125.019 269.728 123.056C267.083 121.008 263.243 119.984 258.208 119.984C255.392 119.984 252.533 120.197 249.632 120.624C246.731 121.051 244.085 121.563 241.696 122.16L238.624 122.928L236.32 114.352L239.52 113.2C243.445 111.664 247.2 110.512 250.784 109.744C254.453 108.976 258.08 108.592 261.664 108.592C269.088 108.592 275.104 110.555 279.712 114.48C284.32 118.405 286.624 124.421 286.624 132.528V158.256C286.624 160.987 287.264 162.864 288.544 163.888C289.824 164.827 292.555 165.424 296.736 165.68L296.096 174.256C295.243 174.512 294.304 174.683 293.28 174.768C292.341 174.853 291.488 174.896 290.72 174.896C286.368 174.896 282.955 173.957 280.48 172.08C278.091 170.117 276.427 167.685 275.488 164.784L272.544 167.344C269.643 169.904 266.528 171.824 263.2 173.104C259.872 174.299 256.672 174.896 253.6 174.896ZM257.696 164.016C259.659 164.016 261.707 163.632 263.84 162.864C265.973 162.011 268.149 160.816 270.368 159.28L273.696 156.976V141.104L254.112 146.48C250.955 147.419 248.736 148.613 247.456 150.064C246.261 151.515 245.664 153.307 245.664 155.44C245.664 158.171 246.731 160.304 248.864 161.84C250.997 163.291 253.941 164.016 257.696 164.016ZM307.475 174V109.616H317.075L318.611 117.808L323.603 114.352C326.163 112.645 328.936 111.28 331.923 110.256C334.91 109.147 337.768 108.592 340.499 108.592C341.438 108.592 342.376 108.72 343.315 108.976C344.254 109.232 345.15 109.659 346.003 110.256V120.496C343.187 120.581 340.414 120.88 337.683 121.392C335.038 121.819 331.966 122.8 328.467 124.336L320.531 127.408V174H307.475ZM358.225 174V79.536L371.281 75.44V135.728H380.113L400.337 109.616H415.185L384.849 147.12H371.281V174H358.225ZM402.513 174L380.625 146.096L388.561 136.368L418.385 174H402.513ZM455.448 174.896C449.219 174.896 443.501 173.659 438.296 171.184C433.176 168.624 429.037 164.912 425.88 160.048C422.723 155.099 421.144 149.04 421.144 141.872C421.144 137.008 421.955 132.528 423.576 128.432C425.197 124.336 427.501 120.837 430.488 117.936C433.475 114.949 436.888 112.645 440.728 111.024C444.568 109.403 448.749 108.592 453.272 108.592C459.672 108.592 465.005 110 469.272 112.816C473.624 115.632 476.867 119.472 479 124.336C481.219 129.115 482.328 134.533 482.328 140.592V144.816H434.584C435.096 148.997 436.333 152.496 438.296 155.312C440.344 158.043 442.947 160.091 446.104 161.456C449.261 162.821 452.76 163.504 456.6 163.504C458.989 163.504 461.421 163.291 463.896 162.864C466.371 162.437 468.888 161.883 471.448 161.2L476.952 159.408L480.536 167.984L475.544 170.416C472.301 171.867 468.931 172.976 465.432 173.744C462.019 174.512 458.691 174.896 455.448 174.896ZM435.096 135.216H469.912C469.315 130.437 467.608 126.683 464.792 123.952C462.061 121.136 458.221 119.728 453.272 119.728C450.2 119.728 447.384 120.368 444.824 121.648C442.349 122.843 440.259 124.635 438.552 127.024C436.931 129.328 435.779 132.059 435.096 135.216ZM521.423 174.896C515.194 174.896 510.5 173.573 507.343 170.928C504.271 168.283 502.735 164.016 502.735 158.128V121.008H488.655V112.048L502.735 109.616V94.256L515.791 89.648V109.616H537.551V121.008H515.791V154.032C515.791 157.36 516.388 159.835 517.583 161.456C518.863 162.992 521.551 163.76 525.647 163.76C526.842 163.76 528.122 163.717 529.487 163.632C530.852 163.461 532.26 163.291 533.711 163.12L537.167 162.608L538.703 171.952L535.631 172.848C533.412 173.445 531.023 173.915 528.463 174.256C525.903 174.683 523.556 174.896 521.423 174.896ZM553.267 174V84.4H566.835V121.776H616.115V84.4H629.683V174H616.115V133.68H566.835V174H553.267ZM670.693 174.896C663.525 174.896 658.234 172.933 654.821 169.008C651.493 165.083 649.829 159.835 649.829 153.264V109.616H662.757V150.192C662.757 154.629 663.824 157.915 665.957 160.048C668.176 162.096 671.376 163.12 675.557 163.12C677.434 163.12 679.269 162.864 681.061 162.352C682.853 161.84 684.73 161.115 686.693 160.176L691.813 157.872V109.616H704.869V174H694.885L693.349 164.016L696.037 166.064L689.253 169.648C686.01 171.44 682.81 172.763 679.653 173.616C676.581 174.469 673.594 174.896 670.693 174.896ZM757.124 174.896C754.308 174.896 751.364 174.384 748.292 173.36C745.305 172.336 742.319 170.843 739.332 168.88L733.956 165.424L736.644 156.464L742.532 159.792C744.665 160.987 746.671 161.84 748.548 162.352C750.425 162.864 752.303 163.12 754.18 163.12C758.02 163.12 761.305 162.267 764.036 160.56C766.852 158.853 769.028 156.421 770.564 153.264C772.1 150.107 772.868 146.267 772.868 141.744C772.868 137.392 772.1 133.637 770.564 130.48C769.028 127.237 766.809 124.763 763.908 123.056C761.092 121.349 757.636 120.496 753.54 120.496C751.833 120.496 750.041 120.709 748.164 121.136C746.372 121.477 744.324 122.117 742.02 123.056L737.156 124.976V160.56L735.748 162.736L733.956 174H724.1V79.536L737.156 75.44V119.472L733.444 116.144L741.124 112.56C743.599 111.365 746.201 110.427 748.932 109.744C751.748 108.976 754.479 108.592 757.124 108.592C762.756 108.592 767.748 110.043 772.1 112.944C776.537 115.76 779.951 119.685 782.34 124.72C784.815 129.669 786.052 135.344 786.052 141.744C786.052 148.144 784.815 153.861 782.34 158.896C779.951 163.931 776.58 167.856 772.228 170.672C767.876 173.488 762.841 174.896 757.124 174.896Z" fill="#FAF0E6"/>
</svg>
