<svg width="865" height="229" viewBox="0 0 865 229" fill="none" xmlns="http://www.w3.org/2000/svg">
<rect x="37.51" width="203.347" height="203.347" rx="17.2746" fill="#352F44"/>
<path d="M75.2952 86.0844V198.527C75.2952 200.98 77.2839 202.969 79.7372 202.969H197.436C199.889 202.969 201.878 200.98 201.878 198.527V88.1648C201.878 84.6 197.89 82.4874 194.941 84.4897L141.346 120.875C139.811 121.917 137.79 121.896 136.277 120.821L82.3106 82.4638C79.3695 80.3734 75.2952 82.4762 75.2952 86.0844Z" fill="#B9B4C7"/>
<mask id="mask0_141_70" style="mask-type:alpha" maskUnits="userSpaceOnUse" x="219" y="35" width="61" height="45">
<rect x="219.634" y="35.2754" width="59.7207" height="44.6817" fill="#D9D9D9"/>
</mask>
<g mask="url(#mask0_141_70)">
<path d="M269.531 45.2053H12.816C12.0002 45.2053 11.3389 45.8667 11.3389 46.6824C11.3389 46.9634 11.4266 47.2509 11.5784 47.4874C32.5975 80.2218 49.9788 68.7831 58.8902 54.6533C60.8047 51.6176 65.488 51.2572 67.6873 54.0934C86.9018 78.8729 102.844 67.8007 111.316 54.5331C113.237 51.5249 117.878 51.1881 120.058 54.0141C139.176 78.798 154.776 67.902 163.047 54.6907C164.955 51.644 169.637 51.267 171.812 54.1294C191.859 80.5217 207.34 69.1377 215.357 55.2147C217.19 52.0312 222.048 51.5691 224.334 54.4448C246.156 81.8947 264.169 62.1357 270.961 47.4162C271.054 47.2134 271.1 46.9971 271.1 46.7738C271.1 45.9076 270.397 45.2053 269.531 45.2053Z" fill="#352F44"/>
</g>
<mask id="mask1_141_70" style="mask-type:alpha" maskUnits="userSpaceOnUse" x="0" y="35" width="62" height="45">
<rect width="61.1088" height="44.6817" transform="matrix(-1 0 0 1 61.1089 35.2754)" fill="#D9D9D9"/>
</mask>
<g mask="url(#mask1_141_70)">
<path d="M10.009 45.2053H272.774C273.587 45.2053 274.245 45.8638 274.245 46.676C274.245 46.9609 274.154 47.2521 273.998 47.4903C252.391 80.373 234.542 68.6756 225.462 54.4565C223.551 51.4634 218.949 51.0964 216.751 53.8859C196.92 79.0567 180.477 67.7285 171.818 54.3383C169.9 51.3731 165.34 51.0291 163.161 53.8082C143.427 78.9825 127.338 67.8292 118.885 54.4933C116.98 51.4891 112.368 51.1198 110.193 53.9344C89.5054 80.708 73.5522 69.0593 65.3645 55.0097C63.5333 51.8675 58.7553 51.4018 56.4713 54.2319C34.0665 81.994 15.5597 62.1771 8.59024 47.4201C8.49329 47.2148 8.44635 46.995 8.44635 46.768C8.44635 45.9049 9.146 45.2053 10.009 45.2053Z" fill="#352F44"/>
</g>
<mask id="mask2_141_70" style="mask-type:alpha" maskUnits="userSpaceOnUse" x="166" y="33" width="54" height="45">
<rect x="166.329" y="33.0688" width="53.3044" height="44.6817" fill="#D9D9D9"/>
</mask>
<g mask="url(#mask2_141_70)">
<path d="M268.005 45.2053H14.139C13.3215 45.2053 12.6588 45.868 12.6588 46.6855C12.6588 46.9646 12.7452 47.2504 12.8948 47.4859C33.6372 80.1481 50.7979 68.8348 59.6297 54.7492C61.5458 51.6932 66.268 51.3356 68.4679 54.1941C87.3922 78.784 103.099 67.8354 111.481 54.6281C113.404 51.5994 118.08 51.269 120.24 54.1327C138.891 78.8536 152.331 67.4532 161.612 53.8491C163.676 50.8232 168.419 51.1506 170.252 54.3221C184.778 79.4638 204.496 68.6769 213.96 55.0852C216.069 52.0561 221.117 51.6507 223.404 54.548C244.952 81.8463 262.731 62.1155 269.44 47.4143C269.532 47.2128 269.577 46.9981 269.577 46.7766C269.577 45.9088 268.873 45.2053 268.005 45.2053Z" fill="#5C5470"/>
</g>
<mask id="mask3_141_70" style="mask-type:alpha" maskUnits="userSpaceOnUse" x="113" y="33" width="54" height="45">
<rect x="113.026" y="33.0688" width="53.3044" height="44.6817" fill="#D9D9D9"/>
</mask>
<g mask="url(#mask3_141_70)">
<path d="M214.701 45.2053H-39.1654C-39.9829 45.2053 -40.6456 45.868 -40.6456 46.6855C-40.6456 46.9646 -40.5592 47.2504 -40.4096 47.4859C-19.6672 80.1481 -2.50657 68.8348 6.32527 54.7492C8.24139 51.6932 12.9636 51.3356 15.1634 54.1941C34.0877 78.784 49.7943 67.8354 58.177 54.6281C60.0993 51.5994 64.7766 51.2689 66.945 54.1265C85.5203 78.606 99.1951 67.026 108.288 53.8415C110.368 50.8256 115.12 51.1544 116.976 54.3128C131.606 79.2052 151.935 67.2383 161.003 54.4163C163.052 51.5193 167.88 50.8468 170.594 53.1324C186.756 66.7421 209.602 61.3312 216.132 47.4184C216.226 47.2179 216.272 46.9981 216.272 46.7766C216.272 45.9088 215.569 45.2053 214.701 45.2053Z" fill="#352F44"/>
</g>
<mask id="mask4_141_70" style="mask-type:alpha" maskUnits="userSpaceOnUse" x="61" y="32" width="53" height="46">
<rect x="61.1089" y="32.7373" width="51.9163" height="44.6817" fill="#D9D9D9"/>
</mask>
<g mask="url(#mask4_141_70)">
<path d="M160.09 44.8728H-87.0718C-87.8934 44.8728 -88.5594 45.5388 -88.5594 46.3604C-88.5594 46.6348 -88.4761 46.9164 -88.3317 47.1498C-68.2404 79.6355 -51.5991 68.6268 -42.9554 54.6505C-41.0356 51.5463 -36.2204 51.195 -34.0194 54.1065C-15.7781 78.2358 -0.626511 67.5859 7.54549 54.5274C9.47135 51.4499 14.2332 51.1261 16.3512 54.0746C34.5098 79.353 46.9162 70.9551 56.4241 54.8708C58.3872 51.5499 63.5691 51.7072 65.5626 55.01C79.6701 78.3836 98.8804 66.8763 107.668 54.3286C109.732 51.3823 114.699 50.7004 117.474 52.9897C132.829 65.6587 155.234 60.8431 161.533 47.0816C161.623 46.8841 161.668 46.668 161.668 46.4507C161.668 45.5793 160.961 44.8728 160.09 44.8728Z" fill="#5C5470"/>
</g>
<path fill-rule="evenodd" clip-rule="evenodd" d="M8.05994 45.7564L36.5432 3.51097C37.9193 1.4699 40.22 0.246338 42.6817 0.246338H236.645C239.122 0.246338 241.435 1.4851 242.808 3.54697L270.909 45.7564H8.05994Z" fill="#352F44"/>
<mask id="mask5_141_70" style="mask-type:alpha" maskUnits="userSpaceOnUse" x="8" y="0" width="263" height="46">
<path fill-rule="evenodd" clip-rule="evenodd" d="M8.05994 45.7564L36.5432 3.51097C37.9193 1.4699 40.22 0.246338 42.6817 0.246338H236.645C239.122 0.246338 241.435 1.4851 242.808 3.54697L270.909 45.7564H8.05994Z" fill="#FAF0E6"/>
</mask>
<g mask="url(#mask5_141_70)">
<path d="M130.948 -94.9365L112.397 50.7426L61.1095 45.8321L130.948 -94.9365Z" fill="#5C5470"/>
<path d="M141.315 -98.7566L166.958 49.105L219.634 45.7555L141.315 -98.7566Z" fill="#5C5470"/>
</g>
<path d="M276.735 191.448C273.01 191.448 269.425 190.75 265.98 189.353C262.534 187.957 259.694 185.815 257.46 182.928C255.318 180.041 254.247 176.363 254.247 171.894C254.247 166.12 256.063 161.604 259.694 158.345C263.326 154.993 268.448 152.618 275.059 151.221L298.664 145.914V145.495C298.664 140.559 297.221 137.021 294.334 134.879C291.448 132.644 287.257 131.527 281.763 131.527C278.691 131.527 275.571 131.76 272.405 132.225C269.239 132.691 266.352 133.25 263.745 133.901L260.393 134.739L257.879 125.381L261.371 124.124C265.654 122.448 269.751 121.191 273.662 120.353C277.666 119.515 281.624 119.096 285.535 119.096C293.636 119.096 300.201 121.237 305.229 125.521C310.258 129.804 312.772 136.369 312.772 145.215V173.29C312.772 176.27 313.47 178.319 314.867 179.436C316.264 180.46 319.244 181.112 323.806 181.392L323.108 190.75C322.177 191.029 321.152 191.216 320.035 191.309C319.011 191.402 318.08 191.448 317.241 191.448C312.492 191.448 308.768 190.424 306.067 188.376C303.46 186.234 301.644 183.58 300.62 180.414L297.407 183.207C294.241 186.001 290.842 188.096 287.211 189.493C283.579 190.797 280.087 191.448 276.735 191.448ZM281.205 179.576C283.346 179.576 285.581 179.157 287.909 178.319C290.237 177.388 292.612 176.084 295.033 174.408L298.664 171.894V154.574L277.294 160.44C273.848 161.464 271.427 162.768 270.031 164.351C268.727 165.934 268.075 167.89 268.075 170.217C268.075 173.197 269.239 175.525 271.567 177.201C273.895 178.784 277.108 179.576 281.205 179.576ZM335.525 190.471V120.213H346.001L347.677 129.152L353.124 125.381C355.918 123.519 358.944 122.029 362.203 120.911C365.463 119.701 368.582 119.096 371.562 119.096C372.586 119.096 373.61 119.235 374.635 119.515C375.659 119.794 376.637 120.26 377.568 120.911V132.086C374.495 132.179 371.469 132.505 368.489 133.063C365.602 133.529 362.25 134.6 358.432 136.276L349.772 139.628V190.471H335.525ZM390.905 190.471V87.3888L405.152 82.9191V148.707H414.79L436.859 120.213H453.061L419.958 161.138H405.152V190.471H390.905ZM439.233 190.471L415.348 160.021L424.008 149.406L456.553 190.471H439.233ZM496.997 191.448C490.2 191.448 483.961 190.098 478.281 187.398C472.694 184.604 468.177 180.554 464.732 175.246C461.287 169.845 459.564 163.234 459.564 155.412C459.564 150.104 460.449 145.215 462.218 140.746C463.987 136.276 466.501 132.458 469.76 129.292C473.02 126.033 476.744 123.519 480.935 121.749C485.125 119.98 489.688 119.096 494.623 119.096C501.607 119.096 507.427 120.632 512.083 123.705C516.832 126.778 520.37 130.968 522.698 136.276C525.119 141.491 526.33 147.404 526.33 154.015V158.624H474.23C474.789 163.187 476.139 167.005 478.281 170.078C480.516 173.058 483.356 175.292 486.801 176.782C490.246 178.272 494.064 179.017 498.255 179.017C500.862 179.017 503.516 178.784 506.216 178.319C508.917 177.853 511.664 177.248 514.457 176.503L520.463 174.547L524.374 183.906L518.927 186.56C515.388 188.143 511.71 189.353 507.892 190.191C504.168 191.029 500.536 191.448 496.997 191.448ZM474.789 148.148H512.781C512.129 142.934 510.267 138.837 507.194 135.857C504.214 132.784 500.024 131.248 494.623 131.248C491.271 131.248 488.198 131.946 485.404 133.343C482.704 134.646 480.422 136.602 478.56 139.209C476.791 141.723 475.534 144.703 474.789 148.148ZM568.991 191.448C562.194 191.448 557.072 190.005 553.627 187.118C550.275 184.232 548.598 179.576 548.598 173.151V132.644H533.234V122.867L548.598 120.213V103.452L562.845 98.4233V120.213H586.591V132.644H562.845V168.681C562.845 172.313 563.497 175.013 564.801 176.782C566.198 178.458 569.131 179.297 573.601 179.297C574.904 179.297 576.301 179.25 577.791 179.157C579.281 178.971 580.817 178.784 582.4 178.598L586.172 178.039L587.848 188.236L584.495 189.214C582.074 189.865 579.467 190.378 576.674 190.75C573.88 191.216 571.319 191.448 568.991 191.448ZM603.74 190.471V92.6966H618.546V133.482H672.322V92.6966H687.128V190.471H672.322V146.472H618.546V190.471H603.74ZM731.879 191.448C724.057 191.448 718.284 189.307 714.559 185.023C710.927 180.74 709.112 175.013 709.112 167.843V120.213H723.219V164.491C723.219 169.333 724.383 172.918 726.711 175.246C729.132 177.481 732.624 178.598 737.187 178.598C739.235 178.598 741.237 178.319 743.193 177.76C745.148 177.201 747.197 176.41 749.339 175.386L754.926 172.871V120.213H769.173V190.471H758.278L756.602 179.576L759.535 181.811L752.132 185.722C748.594 187.677 745.102 189.12 741.656 190.052C738.304 190.983 735.045 191.448 731.879 191.448ZM826.195 191.448C823.122 191.448 819.91 190.89 816.557 189.772C813.298 188.655 810.039 187.025 806.78 184.884L800.914 181.112L803.847 171.335L810.272 174.967C812.6 176.27 814.788 177.201 816.837 177.76C818.885 178.319 820.934 178.598 822.983 178.598C827.173 178.598 830.758 177.667 833.738 175.805C836.811 173.942 839.185 171.288 840.861 167.843C842.537 164.398 843.375 160.207 843.375 155.272C843.375 150.523 842.537 146.426 840.861 142.98C839.185 139.442 836.764 136.741 833.598 134.879C830.525 133.017 826.754 132.086 822.284 132.086C820.422 132.086 818.466 132.318 816.418 132.784C814.462 133.156 812.227 133.855 809.713 134.879L804.405 136.974V175.805L802.869 178.179L800.914 190.471H790.158V87.3888L804.405 82.9191V130.968L800.355 127.337L808.735 123.426C811.436 122.122 814.276 121.098 817.256 120.353C820.329 119.515 823.308 119.096 826.195 119.096C832.341 119.096 837.788 120.679 842.537 123.845C847.38 126.918 851.104 131.201 853.712 136.695C856.412 142.096 857.762 148.288 857.762 155.272C857.762 162.256 856.412 168.495 853.712 173.989C851.104 179.483 847.426 183.766 842.677 186.839C837.928 189.912 832.434 191.448 826.195 191.448Z" fill="#352F44"/>
</svg>
