<svg width="734" height="170" viewBox="0 0 734 170" fill="none" xmlns="http://www.w3.org/2000/svg">
<rect x="24.9752" width="135.392" height="135.392" rx="11.5018" fill="#F24333"/>
<path d="M50.1328 57.3166V132.183C50.1328 133.816 51.457 135.141 53.0904 135.141H131.457C133.09 135.141 134.414 133.817 134.414 132.183V58.7017C134.414 56.3282 131.759 54.9216 129.795 56.2548L94.1106 80.4809C93.0886 81.1748 91.7429 81.1603 90.736 80.4447L54.8038 54.9059C52.8456 53.5141 50.1328 54.9141 50.1328 57.3166Z" fill="#F7F4F3"/>
<mask id="mask0_22_232" style="mask-type:alpha" maskUnits="userSpaceOnUse" x="146" y="23" width="40" height="31">
<rect x="146.237" y="23.4868" width="39.7633" height="29.75" fill="#D9D9D9"/>
</mask>
<g mask="url(#mask0_22_232)">
<path d="M179.46 30.0979H8.53367C7.9905 30.0979 7.55017 30.5382 7.55017 31.0814C7.55017 31.2685 7.6086 31.4599 7.70967 31.6173C21.7046 53.4126 33.2774 45.7964 39.2108 36.3886C40.4855 34.3674 43.6038 34.1274 45.0681 36.0158C57.8615 52.5145 68.4762 45.1424 74.1169 36.3086C75.3958 34.3056 78.4858 34.0814 79.9374 35.963C92.667 52.4646 103.054 45.2098 108.561 36.4135C109.831 34.3849 112.949 34.1339 114.396 36.0397C127.745 53.6123 138.052 46.0326 143.39 36.7624C144.61 34.6427 147.845 34.3351 149.367 36.2497C163.896 54.5264 175.889 41.3705 180.412 31.5699C180.474 31.4349 180.504 31.2909 180.504 31.1422C180.504 30.5655 180.037 30.0979 179.46 30.0979Z" fill="#F24333"/>
</g>
<mask id="mask1_22_232" style="mask-type:alpha" maskUnits="userSpaceOnUse" x="0" y="23" width="41" height="31">
<rect width="40.6875" height="29.75" transform="matrix(-1 0 0 1 40.6875 23.4868)" fill="#D9D9D9"/>
</mask>
<g mask="url(#mask1_22_232)">
<path d="M6.66391 30.0979H181.618C182.159 30.0979 182.598 30.5363 182.598 31.0771C182.598 31.2668 182.537 31.4607 182.433 31.6193C168.047 53.5133 156.162 45.7249 150.117 36.2575C148.844 34.2647 145.78 34.0203 144.317 35.8776C131.113 52.6368 120.165 45.0943 114.399 36.1788C113.123 34.2045 110.086 33.9755 108.636 35.8258C95.4962 52.5874 84.7841 45.1613 79.1556 36.282C77.8876 34.2818 74.8167 34.0359 73.3687 35.9099C59.5943 53.7363 48.9723 45.9804 43.5207 36.6258C42.3015 34.5337 39.1202 34.2236 37.5995 36.108C22.6818 54.5925 10.3596 41.3981 5.71925 31.5725C5.65471 31.4359 5.62346 31.2895 5.62346 31.1383C5.62346 30.5637 6.08928 30.0979 6.66391 30.0979Z" fill="#F24333"/>
</g>
<mask id="mask2_22_232" style="mask-type:alpha" maskUnits="userSpaceOnUse" x="110" y="22" width="37" height="30">
<rect x="110.746" y="22.0176" width="35.4912" height="29.75" fill="#D9D9D9"/>
</mask>
<g mask="url(#mask2_22_232)">
<path d="M178.444 30.0979H9.41427C8.86996 30.0979 8.42871 30.5392 8.42871 31.0835C8.42871 31.2692 8.48626 31.4595 8.58585 31.6164C22.3966 53.3635 33.8225 45.8309 39.7029 36.4524C40.9787 34.4177 44.1228 34.1796 45.5875 36.0828C58.1877 52.4553 68.6454 45.1655 74.2268 36.3718C75.5067 34.3552 78.6202 34.1352 80.0587 36.0419C92.4766 52.5016 101.425 44.911 107.604 35.8531C108.979 33.8384 112.137 34.0564 113.357 36.1681C123.029 52.9079 136.158 45.7257 142.459 36.6762C143.864 34.6593 147.225 34.3893 148.747 36.3184C163.094 54.4942 174.932 41.357 179.399 31.5687C179.46 31.4345 179.49 31.2916 179.49 31.1441C179.49 30.5663 179.021 30.0979 178.444 30.0979Z" fill="#F7F4F3"/>
</g>
<mask id="mask3_22_232" style="mask-type:alpha" maskUnits="userSpaceOnUse" x="75" y="22" width="36" height="30">
<rect x="75.2544" y="22.0176" width="35.4912" height="29.75" fill="#D9D9D9"/>
</mask>
<g mask="url(#mask3_22_232)">
<path d="M142.952 30.0979H-26.0769C-26.6213 30.0979 -27.0625 30.5392 -27.0625 31.0835C-27.0625 31.2692 -27.005 31.4595 -26.9054 31.6164C-13.0947 53.3635 -1.66874 45.8309 4.21169 36.4524C5.48748 34.4177 8.63159 34.1796 10.0963 36.0828C22.6965 52.4553 33.1542 45.1654 38.7356 36.3718C40.0155 34.3552 43.1298 34.1351 44.5736 36.0378C56.9414 52.3367 66.0463 44.6265 72.1008 35.848C73.4858 33.84 76.6492 34.0589 77.8852 36.1619C87.6261 52.7357 101.162 44.7679 107.2 36.2308C108.564 34.3019 111.778 33.8541 113.585 35.3759C124.346 44.4375 139.557 40.8348 143.905 31.5714C143.968 31.4379 143.999 31.2916 143.999 31.1441C143.999 30.5663 143.53 30.0979 142.952 30.0979Z" fill="#F24333"/>
</g>
<mask id="mask4_22_232" style="mask-type:alpha" maskUnits="userSpaceOnUse" x="40" y="21" width="36" height="31">
<rect x="40.6875" y="21.7969" width="34.5669" height="29.75" fill="#D9D9D9"/>
</mask>
<g mask="url(#mask4_22_232)">
<path d="M106.591 29.877H-57.9744C-58.5214 29.877 -58.9648 30.3204 -58.9648 30.8674C-58.9648 31.0502 -58.9094 31.2376 -58.8133 31.3931C-45.4361 53.0227 -34.3559 45.6928 -28.6008 36.3871C-27.3225 34.3203 -24.1165 34.0864 -22.651 36.0249C-10.5056 52.0907 -0.417332 44.9998 5.02375 36.3052C6.30603 34.2561 9.47659 34.0405 10.8868 36.0037C22.9772 52.8346 31.2375 47.243 37.5681 36.5338C38.8752 34.3227 42.3254 34.4274 43.6527 36.6265C53.0458 52.1891 65.8364 44.5274 71.6875 36.1728C73.0614 34.2111 76.3688 33.7571 78.2162 35.2813C88.4398 43.7166 103.358 40.5103 107.552 31.3476C107.612 31.2161 107.641 31.0722 107.641 30.9276C107.641 30.3473 107.171 29.877 106.591 29.877Z" fill="#F7F4F3"/>
</g>
<path fill-rule="evenodd" clip-rule="evenodd" d="M5.36695 30.465L24.3312 2.33787C25.2475 0.978882 26.7793 0.164209 28.4183 0.164209H157.563C159.212 0.164209 160.752 0.989005 161.666 2.36184L180.376 30.465H5.36695Z" fill="#F24333"/>
<mask id="mask5_22_232" style="mask-type:alpha" maskUnits="userSpaceOnUse" x="5" y="0" width="176" height="31">
<path fill-rule="evenodd" clip-rule="evenodd" d="M5.36694 30.4651L24.3312 2.33797C25.2475 0.97898 26.7793 0.164307 28.4183 0.164307H157.563C159.212 0.164307 160.752 0.989103 161.666 2.36194L180.376 30.4651H5.36694Z" fill="#FAF0E6"/>
</mask>
<g mask="url(#mask5_22_232)">
<path d="M87.1874 -63.2109L74.8358 33.7852L40.6874 30.5157L87.1874 -63.2109Z" fill="#F7F4F3"/>
<path d="M94.0898 -65.7539L111.164 32.6954L146.237 30.4652L94.0898 -65.7539Z" fill="#F7F4F3"/>
</g>
<path d="M194.6 135.896C191.187 135.896 187.901 135.256 184.744 133.976C181.587 132.696 178.984 130.733 176.936 128.088C174.973 125.442 173.992 122.072 173.992 117.976C173.992 112.685 175.656 108.546 178.984 105.56C182.312 102.488 187.005 100.312 193.064 99.0318L214.696 94.1678V93.7838C214.696 89.2611 213.373 86.0184 210.728 84.0558C208.083 82.0078 204.243 80.9838 199.208 80.9838C196.392 80.9838 193.533 81.1971 190.632 81.6238C187.731 82.0504 185.085 82.5624 182.696 83.1598L179.624 83.9278L177.32 75.3518L180.52 74.1998C184.445 72.6638 188.2 71.5118 191.784 70.7438C195.453 69.9758 199.08 69.5918 202.664 69.5918C210.088 69.5918 216.104 71.5544 220.712 75.4798C225.32 79.4051 227.624 85.4211 227.624 93.5278V119.256C227.624 121.986 228.264 123.864 229.544 124.888C230.824 125.826 233.555 126.424 237.736 126.68L237.096 135.256C236.243 135.512 235.304 135.682 234.28 135.768C233.341 135.853 232.488 135.896 231.72 135.896C227.368 135.896 223.955 134.957 221.48 133.08C219.091 131.117 217.427 128.685 216.488 125.784L213.544 128.344C210.643 130.904 207.528 132.824 204.2 134.104C200.872 135.298 197.672 135.896 194.6 135.896ZM198.696 125.016C200.659 125.016 202.707 124.632 204.84 123.864C206.973 123.01 209.149 121.816 211.368 120.28L214.696 117.976V102.104L195.112 107.48C191.955 108.418 189.736 109.613 188.456 111.064C187.261 112.514 186.664 114.306 186.664 116.44C186.664 119.17 187.731 121.304 189.864 122.84C191.997 124.29 194.941 125.016 198.696 125.016ZM248.475 135V70.6158H258.075L259.611 78.8078L264.603 75.3518C267.163 73.6451 269.936 72.2798 272.923 71.2558C275.91 70.1464 278.768 69.5918 281.499 69.5918C282.438 69.5918 283.376 69.7198 284.315 69.9758C285.254 70.2318 286.15 70.6584 287.003 71.2558V81.4958C284.187 81.5811 281.414 81.8798 278.683 82.3918C276.038 82.8184 272.966 83.7998 269.467 85.3358L261.531 88.4078V135H248.475ZM299.225 135V40.5358L312.281 36.4398V96.7278H321.113L341.337 70.6158H356.185L325.849 108.12H312.281V135H299.225ZM343.513 135L321.625 107.096L329.561 97.3678L359.385 135H343.513ZM396.448 135.896C390.219 135.896 384.501 134.658 379.296 132.184C374.176 129.624 370.037 125.912 366.88 121.048C363.723 116.098 362.144 110.04 362.144 102.872C362.144 98.0078 362.955 93.5278 364.576 89.4318C366.197 85.3358 368.501 81.8371 371.488 78.9358C374.475 75.9491 377.888 73.6451 381.728 72.0238C385.568 70.4024 389.749 69.5918 394.272 69.5918C400.672 69.5918 406.005 70.9998 410.272 73.8158C414.624 76.6318 417.867 80.4718 420 85.3358C422.219 90.1144 423.328 95.5331 423.328 101.592V105.816H375.584C376.096 109.997 377.333 113.496 379.296 116.312C381.344 119.042 383.947 121.09 387.104 122.456C390.261 123.821 393.76 124.504 397.6 124.504C399.989 124.504 402.421 124.29 404.896 123.864C407.371 123.437 409.888 122.882 412.448 122.2L417.952 120.408L421.536 128.984L416.544 131.416C413.301 132.866 409.931 133.976 406.432 134.744C403.019 135.512 399.691 135.896 396.448 135.896ZM376.096 96.2158H410.912C410.315 91.4371 408.608 87.6824 405.792 84.9518C403.061 82.1358 399.221 80.7278 394.272 80.7278C391.2 80.7278 388.384 81.3678 385.824 82.6478C383.349 83.8424 381.259 85.6344 379.552 88.0238C377.931 90.3278 376.779 93.0584 376.096 96.2158ZM462.423 135.896C456.194 135.896 451.5 134.573 448.343 131.928C445.271 129.282 443.735 125.016 443.735 119.128V82.0078H429.655V73.0478L443.735 70.6158V55.2558L456.791 50.6478V70.6158H478.551V82.0078H456.791V115.032C456.791 118.36 457.388 120.834 458.583 122.456C459.863 123.992 462.551 124.76 466.647 124.76C467.842 124.76 469.122 124.717 470.487 124.632C471.852 124.461 473.26 124.29 474.711 124.12L478.167 123.608L479.703 132.952L476.631 133.848C474.412 134.445 472.023 134.914 469.463 135.256C466.903 135.682 464.556 135.896 462.423 135.896ZM494.267 135V45.3997H507.835V82.7758H557.115V45.3997H570.683V135H557.115V94.6798H507.835V135H494.267ZM611.693 135.896C604.525 135.896 599.234 133.933 595.821 130.008C592.493 126.082 590.829 120.834 590.829 114.264V70.6158H603.757V111.192C603.757 115.629 604.824 118.914 606.957 121.048C609.176 123.096 612.376 124.12 616.557 124.12C618.434 124.12 620.269 123.864 622.061 123.352C623.853 122.84 625.73 122.114 627.693 121.176L632.813 118.872V70.6158H645.869V135H635.885L634.349 125.016L637.037 127.064L630.253 130.648C627.01 132.44 623.81 133.762 620.653 134.616C617.581 135.469 614.594 135.896 611.693 135.896ZM698.124 135.896C695.308 135.896 692.364 135.384 689.292 134.36C686.305 133.336 683.319 131.842 680.332 129.88L674.956 126.424L677.644 117.464L683.532 120.792C685.665 121.986 687.671 122.84 689.548 123.352C691.425 123.864 693.303 124.12 695.18 124.12C699.02 124.12 702.305 123.266 705.036 121.56C707.852 119.853 710.028 117.421 711.564 114.264C713.1 111.106 713.868 107.266 713.868 102.744C713.868 98.3918 713.1 94.6371 711.564 91.4798C710.028 88.2371 707.809 85.7624 704.908 84.0558C702.092 82.3491 698.636 81.4958 694.54 81.4958C692.833 81.4958 691.041 81.7091 689.164 82.1358C687.372 82.4771 685.324 83.1171 683.02 84.0558L678.156 85.9758V121.56L676.748 123.736L674.956 135H665.1V40.5358L678.156 36.4398V80.4718L674.444 77.1438L682.124 73.5598C684.599 72.3651 687.201 71.4264 689.932 70.7438C692.748 69.9758 695.479 69.5918 698.124 69.5918C703.756 69.5918 708.748 71.0424 713.1 73.9438C717.537 76.7598 720.951 80.6851 723.34 85.7198C725.815 90.6691 727.052 96.3438 727.052 102.744C727.052 109.144 725.815 114.861 723.34 119.896C720.951 124.93 717.58 128.856 713.228 131.672C708.876 134.488 703.841 135.896 698.124 135.896Z" fill="#F24333"/>
</svg>
