<svg width="738" height="170" viewBox="0 0 738 170" fill="none" xmlns="http://www.w3.org/2000/svg">
<g filter="url(#filter0_d_22_203)">
<rect x="24.9753" width="135.392" height="135.392" rx="11.5018" fill="#F24333"/>
<path d="M50.1328 57.3166V132.183C50.1328 133.816 51.457 135.141 53.0904 135.141H131.457C133.09 135.141 134.414 133.816 134.414 132.183V58.7017C134.414 56.3282 131.759 54.9216 129.795 56.2548L94.1107 80.4809C93.0886 81.1748 91.7429 81.1603 90.736 80.4446L54.8039 54.9059C52.8456 53.5141 50.1328 54.9141 50.1328 57.3166Z" fill="#F7F4F3"/>
<mask id="mask0_22_203" style="mask-type:alpha" maskUnits="userSpaceOnUse" x="146" y="23" width="40" height="31">
<rect x="146.237" y="23.4868" width="39.7633" height="29.7499" fill="#D9D9D9"/>
</mask>
<g mask="url(#mask0_22_203)">
<path d="M179.46 30.0979H8.53373C7.99056 30.0979 7.55023 30.5382 7.55023 31.0814C7.55023 31.2685 7.60866 31.4599 7.70973 31.6173C21.7046 53.4126 33.2775 45.7964 39.2109 36.3886C40.4856 34.3674 43.6039 34.1274 45.0682 36.0158C57.8616 52.5145 68.4763 45.1424 74.1169 36.3086C75.3959 34.3056 78.4859 34.0814 79.9374 35.963C92.667 52.4646 103.054 45.2098 108.561 36.4135C109.831 34.3849 112.949 34.1339 114.396 36.0397C127.745 53.6123 138.052 46.0326 143.39 36.7624C144.61 34.6427 147.845 34.335 149.367 36.2497C163.896 54.5264 175.889 41.3705 180.412 31.5699C180.474 31.4349 180.504 31.2909 180.504 31.1422C180.504 30.5655 180.037 30.0979 179.46 30.0979Z" fill="#F7F4F3"/>
</g>
<mask id="mask1_22_203" style="mask-type:alpha" maskUnits="userSpaceOnUse" x="0" y="23" width="41" height="31">
<rect width="40.6875" height="29.7499" transform="matrix(-1 0 0 1 40.6875 23.4868)" fill="#D9D9D9"/>
</mask>
<g mask="url(#mask1_22_203)">
<path d="M6.66391 30.0979H181.618C182.159 30.0979 182.598 30.5363 182.598 31.0771C182.598 31.2668 182.537 31.4607 182.433 31.6193C168.047 53.5133 156.162 45.7249 150.117 36.2575C148.844 34.2647 145.78 34.0203 144.317 35.8776C131.113 52.6368 120.165 45.0943 114.399 36.1788C113.123 34.2045 110.086 33.9755 108.636 35.8258C95.4962 52.5874 84.7841 45.1613 79.1556 36.282C77.8876 34.2818 74.8167 34.0359 73.3687 35.9099C59.5943 53.7363 48.9723 45.9804 43.5207 36.6258C42.3015 34.5337 39.1202 34.2236 37.5995 36.108C22.6818 54.5925 10.3596 41.3981 5.71925 31.5725C5.65471 31.4359 5.62346 31.2895 5.62346 31.1383C5.62346 30.5637 6.08928 30.0979 6.66391 30.0979Z" fill="#F7F4F3"/>
</g>
<mask id="mask2_22_203" style="mask-type:alpha" maskUnits="userSpaceOnUse" x="110" y="22" width="37" height="30">
<rect x="110.746" y="22.0176" width="35.4912" height="29.7499" fill="#D9D9D9"/>
</mask>
<g mask="url(#mask2_22_203)">
<path d="M178.444 30.0979H9.4143C8.86999 30.0979 8.42874 30.5391 8.42874 31.0835C8.42874 31.2692 8.48629 31.4595 8.58589 31.6164C22.3966 53.3635 33.8225 45.8309 39.7029 36.4524C40.9787 34.4177 44.1228 34.1796 45.5876 36.0828C58.1877 52.4552 68.6455 45.1654 74.2269 36.3718C75.5068 34.3552 78.6202 34.1352 80.0587 36.0419C92.4767 52.5016 101.425 44.911 107.605 35.8531C108.979 33.8384 112.137 34.0564 113.357 36.1681C123.029 52.9079 136.158 45.7257 142.459 36.6761C143.864 34.6593 147.225 34.3893 148.747 36.3184C163.094 54.4942 174.932 41.357 179.399 31.5687C179.46 31.4345 179.49 31.2916 179.49 31.1441C179.49 30.5663 179.021 30.0979 178.444 30.0979Z" fill="#564D4A"/>
</g>
<mask id="mask3_22_203" style="mask-type:alpha" maskUnits="userSpaceOnUse" x="75" y="22" width="36" height="30">
<rect x="75.2544" y="22.0176" width="35.4912" height="29.7499" fill="#D9D9D9"/>
</mask>
<g mask="url(#mask3_22_203)">
<path d="M142.952 30.0979H-26.0769C-26.6213 30.0979 -27.0625 30.5392 -27.0625 31.0835C-27.0625 31.2692 -27.005 31.4595 -26.9054 31.6164C-13.0947 53.3635 -1.66874 45.8309 4.21169 36.4524C5.48748 34.4177 8.63159 34.1796 10.0963 36.0828C22.6965 52.4552 33.1542 45.1654 38.7356 36.3718C40.0155 34.3552 43.1298 34.1351 44.5736 36.0378C56.9414 52.3367 66.0463 44.6265 72.1009 35.848C73.4858 33.84 76.6492 34.0589 77.8852 36.1619C87.6261 52.7357 101.162 44.7679 107.2 36.2308C108.564 34.3019 111.778 33.8541 113.585 35.3759C124.346 44.4375 139.557 40.8348 143.905 31.5714C143.968 31.4379 143.999 31.2916 143.999 31.1441C143.999 30.5663 143.53 30.0979 142.952 30.0979Z" fill="#F7F4F3"/>
</g>
<mask id="mask4_22_203" style="mask-type:alpha" maskUnits="userSpaceOnUse" x="40" y="21" width="36" height="31">
<rect x="40.6875" y="21.7969" width="34.5669" height="29.7499" fill="#D9D9D9"/>
</mask>
<g mask="url(#mask4_22_203)">
<path d="M106.591 29.8772H-57.9744C-58.5214 29.8772 -58.9648 30.3206 -58.9648 30.8677C-58.9648 31.0504 -58.9094 31.2379 -58.8133 31.3933C-45.4361 53.0229 -34.3559 45.6931 -28.6008 36.3874C-27.3225 34.3205 -24.1165 34.0866 -22.651 36.0252C-10.5056 52.0909 -0.417332 45 5.02375 36.3054C6.30603 34.2564 9.47658 34.0407 10.8868 36.0039C22.9772 52.8348 31.2375 47.2433 37.5681 36.534C38.8752 34.3229 42.3254 34.4277 43.6527 36.6267C53.0458 52.1894 65.8364 44.5276 71.6875 36.1731C73.0614 34.2113 76.3688 33.7573 78.2162 35.2816C88.4398 43.7169 103.358 40.5106 107.552 31.3479C107.612 31.2163 107.641 31.0725 107.641 30.9278C107.641 30.3476 107.171 29.8772 106.591 29.8772Z" fill="#564D4A"/>
</g>
<path fill-rule="evenodd" clip-rule="evenodd" d="M5.36691 30.4652L24.3312 2.33796C25.2475 0.978979 26.7793 0.164307 28.4183 0.164307H157.563C159.212 0.164307 160.752 0.989102 161.666 2.36193L180.376 30.4652H5.36691Z" fill="#F7F4F3"/>
<mask id="mask5_22_203" style="mask-type:alpha" maskUnits="userSpaceOnUse" x="5" y="0" width="176" height="31">
<path fill-rule="evenodd" clip-rule="evenodd" d="M5.36691 30.4652L24.3312 2.33796C25.2475 0.978979 26.7793 0.164307 28.4183 0.164307H157.563C159.212 0.164307 160.752 0.989102 161.666 2.36193L180.376 30.4652H5.36691Z" fill="#FAF0E6"/>
</mask>
<g mask="url(#mask5_22_203)">
<path d="M87.1875 -63.2109L74.8359 33.7852L40.6875 30.5156L87.1875 -63.2109Z" fill="#564D4A"/>
<path d="M94.0898 -65.7539L111.164 32.6953L146.237 30.4652L94.0898 -65.7539Z" fill="#564D4A"/>
</g>
<path d="M198.6 135.896C195.187 135.896 191.901 135.256 188.744 133.976C185.587 132.696 182.984 130.733 180.936 128.088C178.973 125.443 177.992 122.072 177.992 117.976C177.992 112.685 179.656 108.547 182.984 105.56C186.312 102.488 191.005 100.312 197.064 99.032L218.696 94.168V93.784C218.696 89.2613 217.373 86.0187 214.728 84.056C212.083 82.008 208.243 80.984 203.208 80.984C200.392 80.984 197.533 81.1973 194.632 81.624C191.731 82.0507 189.085 82.5627 186.696 83.16L183.624 83.928L181.32 75.352L184.52 74.2C188.445 72.664 192.2 71.512 195.784 70.744C199.453 69.976 203.08 69.592 206.664 69.592C214.088 69.592 220.104 71.5547 224.712 75.48C229.32 79.4053 231.624 85.4213 231.624 93.528V119.256C231.624 121.987 232.264 123.864 233.544 124.888C234.824 125.827 237.555 126.424 241.736 126.68L241.096 135.256C240.243 135.512 239.304 135.683 238.28 135.768C237.341 135.853 236.488 135.896 235.72 135.896C231.368 135.896 227.955 134.957 225.48 133.08C223.091 131.117 221.427 128.685 220.488 125.784L217.544 128.344C214.643 130.904 211.528 132.824 208.2 134.104C204.872 135.299 201.672 135.896 198.6 135.896ZM202.696 125.016C204.659 125.016 206.707 124.632 208.84 123.864C210.973 123.011 213.149 121.816 215.368 120.28L218.696 117.976V102.104L199.112 107.48C195.955 108.419 193.736 109.613 192.456 111.064C191.261 112.515 190.664 114.307 190.664 116.44C190.664 119.171 191.731 121.304 193.864 122.84C195.997 124.291 198.941 125.016 202.696 125.016ZM252.475 135V70.616H262.075L263.611 78.808L268.603 75.352C271.163 73.6453 273.936 72.28 276.923 71.256C279.91 70.1467 282.768 69.592 285.499 69.592C286.438 69.592 287.376 69.72 288.315 69.976C289.254 70.232 290.15 70.6587 291.003 71.256V81.496C288.187 81.5813 285.414 81.88 282.683 82.392C280.038 82.8187 276.966 83.8 273.467 85.336L265.531 88.408V135H252.475ZM303.225 135V40.536L316.281 36.44V96.728H325.113L345.337 70.616H360.185L329.849 108.12H316.281V135H303.225ZM347.513 135L325.625 107.096L333.561 97.368L363.385 135H347.513ZM400.448 135.896C394.219 135.896 388.501 134.659 383.296 132.184C378.176 129.624 374.037 125.912 370.88 121.048C367.723 116.099 366.144 110.04 366.144 102.872C366.144 98.008 366.955 93.528 368.576 89.432C370.197 85.336 372.501 81.8373 375.488 78.936C378.475 75.9493 381.888 73.6453 385.728 72.024C389.568 70.4027 393.749 69.592 398.272 69.592C404.672 69.592 410.005 71 414.272 73.816C418.624 76.632 421.867 80.472 424 85.336C426.219 90.1147 427.328 95.5333 427.328 101.592V105.816H379.584C380.096 109.997 381.333 113.496 383.296 116.312C385.344 119.043 387.947 121.091 391.104 122.456C394.261 123.821 397.76 124.504 401.6 124.504C403.989 124.504 406.421 124.291 408.896 123.864C411.371 123.437 413.888 122.883 416.448 122.2L421.952 120.408L425.536 128.984L420.544 131.416C417.301 132.867 413.931 133.976 410.432 134.744C407.019 135.512 403.691 135.896 400.448 135.896ZM380.096 96.216H414.912C414.315 91.4373 412.608 87.6827 409.792 84.952C407.061 82.136 403.221 80.728 398.272 80.728C395.2 80.728 392.384 81.368 389.824 82.648C387.349 83.8427 385.259 85.6347 383.552 88.024C381.931 90.328 380.779 93.0587 380.096 96.216ZM466.423 135.896C460.194 135.896 455.5 134.573 452.343 131.928C449.271 129.283 447.735 125.016 447.735 119.128V82.008H433.655V73.048L447.735 70.616V55.256L460.791 50.648V70.616H482.551V82.008H460.791V115.032C460.791 118.36 461.388 120.835 462.583 122.456C463.863 123.992 466.551 124.76 470.647 124.76C471.842 124.76 473.122 124.717 474.487 124.632C475.852 124.461 477.26 124.291 478.711 124.12L482.167 123.608L483.703 132.952L480.631 133.848C478.412 134.445 476.023 134.915 473.463 135.256C470.903 135.683 468.556 135.896 466.423 135.896Z" fill="#F24333"/>
<path d="M498.267 135V45.4H511.835V82.776H561.115V45.4H574.683V135H561.115V94.68H511.835V135H498.267ZM615.693 135.896C608.525 135.896 603.234 133.933 599.821 130.008C596.493 126.083 594.829 120.835 594.829 114.264V70.616H607.757V111.192C607.757 115.629 608.824 118.915 610.957 121.048C613.176 123.096 616.376 124.12 620.557 124.12C622.434 124.12 624.269 123.864 626.061 123.352C627.853 122.84 629.73 122.115 631.693 121.176L636.813 118.872V70.616H649.869V135H639.885L638.349 125.016L641.037 127.064L634.253 130.648C631.01 132.44 627.81 133.763 624.653 134.616C621.581 135.469 618.594 135.896 615.693 135.896ZM702.124 135.896C699.308 135.896 696.364 135.384 693.292 134.36C690.305 133.336 687.319 131.843 684.332 129.88L678.956 126.424L681.644 117.464L687.532 120.792C689.665 121.987 691.671 122.84 693.548 123.352C695.425 123.864 697.303 124.12 699.18 124.12C703.02 124.12 706.305 123.267 709.036 121.56C711.852 119.853 714.028 117.421 715.564 114.264C717.1 111.107 717.868 107.267 717.868 102.744C717.868 98.392 717.1 94.6373 715.564 91.48C714.028 88.2373 711.809 85.7627 708.908 84.056C706.092 82.3493 702.636 81.496 698.54 81.496C696.833 81.496 695.041 81.7093 693.164 82.136C691.372 82.4773 689.324 83.1173 687.02 84.056L682.156 85.976V121.56L680.748 123.736L678.956 135H669.1V40.536L682.156 36.44V80.472L678.444 77.144L686.124 73.56C688.599 72.3653 691.201 71.4267 693.932 70.744C696.748 69.976 699.479 69.592 702.124 69.592C707.756 69.592 712.748 71.0427 717.1 73.944C721.537 76.76 724.951 80.6853 727.34 85.72C729.815 90.6693 731.052 96.344 731.052 102.744C731.052 109.144 729.815 114.861 727.34 119.896C724.951 124.931 721.58 128.856 717.228 131.672C712.876 134.488 707.841 135.896 702.124 135.896Z" fill="#F7F4F3"/>
</g>
<defs>
<filter id="filter0_d_22_203" x="1.36691" y="0" width="733.685" height="143.896" filterUnits="userSpaceOnUse" color-interpolation-filters="sRGB">
<feFlood flood-opacity="0" result="BackgroundImageFix"/>
<feColorMatrix in="SourceAlpha" type="matrix" values="0 0 0 0 0 0 0 0 0 0 0 0 0 0 0 0 0 0 127 0" result="hardAlpha"/>
<feOffset dy="4"/>
<feGaussianBlur stdDeviation="2"/>
<feComposite in2="hardAlpha" operator="out"/>
<feColorMatrix type="matrix" values="0 0 0 0 0 0 0 0 0 0 0 0 0 0 0 0 0 0 0.25 0"/>
<feBlend mode="normal" in2="BackgroundImageFix" result="effect1_dropShadow_22_203"/>
<feBlend mode="normal" in="SourceGraphic" in2="effect1_dropShadow_22_203" result="shape"/>
</filter>
</defs>
</svg>
