<svg width="737" height="173" viewBox="0 0 737 173" fill="none" xmlns="http://www.w3.org/2000/svg">
<g filter="url(#filter0_d_22_475)">
<rect x="25.3781" width="137.576" height="137.576" rx="11.6873" fill="#F7F4F3"/>
<path d="M50.9414 58.2413V134.315C50.9414 135.975 52.2869 137.321 53.9467 137.321H133.577C135.237 137.321 136.582 135.975 136.582 134.315V59.6488C136.582 57.237 133.884 55.8077 131.889 57.1623L95.6286 81.7792C94.59 82.4843 93.2226 82.4696 92.1995 81.7424L55.6878 55.7917C53.698 54.3774 50.9414 55.8001 50.9414 58.2413Z" fill="#564D4A"/>
<mask id="mask0_22_475" style="mask-type:alpha" maskUnits="userSpaceOnUse" x="148" y="23" width="41" height="32">
<rect x="148.595" y="23.8657" width="40.4046" height="30.2298" fill="#D9D9D9"/>
</mask>
<g mask="url(#mask0_22_475)">
<path d="M182.354 30.5835H8.67124C8.11931 30.5835 7.67188 31.0309 7.67188 31.5829C7.67188 31.7729 7.73124 31.9675 7.83394 32.1274C22.0546 54.2743 33.8141 46.5352 39.8432 36.9756C41.1385 34.9218 44.307 34.6779 45.7949 36.5968C58.7947 53.3616 69.5806 45.8706 75.3122 36.8943C76.6118 34.8591 79.7517 34.6312 81.2266 36.5432C94.1615 53.311 104.716 45.9391 110.312 37.0009C111.602 34.9396 114.77 34.6846 116.241 36.6212C129.805 54.4772 140.279 46.7752 145.702 37.3555C146.942 35.2016 150.229 34.889 151.776 36.8345C166.54 55.4061 178.726 42.0379 183.322 32.0793C183.385 31.9421 183.416 31.7958 183.416 31.6447C183.416 31.0586 182.94 30.5835 182.354 30.5835Z" fill="#F7F4F3"/>
</g>
<mask id="mask1_22_475" style="mask-type:alpha" maskUnits="userSpaceOnUse" x="0" y="23" width="42" height="32">
<rect width="41.3438" height="30.2298" transform="matrix(-1 0 0 1 41.3438 23.8657)" fill="#D9D9D9"/>
</mask>
<g mask="url(#mask1_22_475)">
<path d="M6.77133 30.5835H184.548C185.097 30.5835 185.543 31.029 185.543 31.5785C185.543 31.7713 185.481 31.9683 185.376 32.1294C170.757 54.3765 158.681 46.4625 152.538 36.8425C151.245 34.8175 148.131 34.5691 146.645 36.4564C133.228 53.486 122.103 45.8218 116.244 36.7625C114.947 34.7563 111.862 34.5236 110.388 36.4038C97.0364 53.4357 86.1516 45.8899 80.4322 36.8674C79.1438 34.8349 76.0234 34.585 74.552 36.4892C60.5554 54.6032 49.7621 46.7222 44.2226 37.2167C42.9837 35.0909 39.7511 34.7758 38.2059 36.6905C23.0476 55.4732 10.5267 42.0659 5.81148 32.0819C5.74588 31.943 5.71411 31.7943 5.71411 31.6407C5.71411 31.0568 6.18745 30.5835 6.77133 30.5835Z" fill="#F7F4F3"/>
</g>
<mask id="mask2_22_475" style="mask-type:alpha" maskUnits="userSpaceOnUse" x="112" y="22" width="37" height="31">
<rect x="112.532" y="22.373" width="36.0636" height="30.2298" fill="#D9D9D9"/>
</mask>
<g mask="url(#mask2_22_475)">
<path d="M181.322 30.5835H9.56627C9.01319 30.5835 8.56482 31.0319 8.56482 31.585C8.56482 31.7737 8.62329 31.9671 8.7245 32.1265C22.758 54.2244 34.3682 46.5702 40.3434 37.0405C41.6398 34.9729 44.8346 34.731 46.323 36.665C59.1264 53.3014 69.7528 45.8941 75.4242 36.9586C76.7248 34.9094 79.8884 34.6859 81.3501 36.6234C93.9684 53.3486 103.061 45.6355 109.34 36.4315C110.737 34.3844 113.946 34.6058 115.186 36.7516C125.014 53.7614 138.354 46.4634 144.757 37.2678C146.184 35.2185 149.599 34.9442 151.147 36.9044C165.725 55.3733 177.754 42.0242 182.293 32.078C182.355 31.9416 182.385 31.7964 182.385 31.6466C182.385 31.0595 181.909 30.5835 181.322 30.5835Z" fill="#564D4A"/>
</g>
<mask id="mask3_22_475" style="mask-type:alpha" maskUnits="userSpaceOnUse" x="76" y="22" width="37" height="31">
<rect x="76.4683" y="22.373" width="36.0636" height="30.2298" fill="#D9D9D9"/>
</mask>
<g mask="url(#mask3_22_475)">
<path d="M145.258 30.5835H-26.4976C-27.0507 30.5835 -27.499 31.0319 -27.499 31.585C-27.499 31.7737 -27.4405 31.9671 -27.3393 32.1265C-13.3059 54.2244 -1.69568 46.5702 4.27959 37.0405C5.57595 34.9729 8.77078 34.731 10.2591 36.665C23.0625 53.3014 33.6889 45.8941 39.3604 36.9586C40.6609 34.9094 43.8254 34.6858 45.2924 36.6192C57.8598 53.181 67.1115 45.3465 73.2637 36.4264C74.671 34.386 77.8855 34.6084 79.1414 36.7453C89.0394 53.5865 102.793 45.4901 108.928 36.8153C110.315 34.8553 113.581 34.4003 115.417 35.9466C126.352 45.1544 141.808 41.4936 146.226 32.0808C146.29 31.9451 146.321 31.7964 146.321 31.6466C146.321 31.0595 145.845 30.5835 145.258 30.5835Z" fill="#F7F4F3"/>
</g>
<mask id="mask4_22_475" style="mask-type:alpha" maskUnits="userSpaceOnUse" x="41" y="22" width="36" height="31">
<rect x="41.3438" y="22.1487" width="35.1245" height="30.2298" fill="#D9D9D9"/>
</mask>
<g mask="url(#mask4_22_475)">
<path d="M108.31 30.3591H-58.9094C-59.4653 30.3591 -59.9159 30.8097 -59.9159 31.3656C-59.9159 31.5513 -59.8595 31.7418 -59.7619 31.8997C-46.1689 53.8782 -34.9101 46.4301 -29.0621 36.9743C-27.7632 34.8741 -24.5055 34.6365 -23.0163 36.6063C-10.675 52.9312 -0.424061 45.7259 5.10479 36.891C6.40775 34.8089 9.62943 34.5898 11.0624 36.5847C23.3478 53.687 31.7414 48.0053 38.1741 37.1233C39.5022 34.8766 43.0081 34.983 44.3568 37.2175C53.9014 53.0312 66.8983 45.2458 72.8438 36.7566C74.2398 34.7632 77.6006 34.3018 79.4778 35.8507C89.8663 44.422 105.025 41.164 109.286 31.8535C109.348 31.7199 109.378 31.5737 109.378 31.4267C109.378 30.8371 108.9 30.3591 108.31 30.3591Z" fill="#564D4A"/>
</g>
<path fill-rule="evenodd" clip-rule="evenodd" d="M5.45349 30.9565L24.7236 2.37571C25.6547 0.994803 27.2112 0.166992 28.8767 0.166992H160.104C161.78 0.166992 163.345 1.00509 164.274 2.40007L183.285 30.9565H5.45349Z" fill="#F7F4F3"/>
<mask id="mask5_22_475" style="mask-type:alpha" maskUnits="userSpaceOnUse" x="5" y="0" width="179" height="31">
<path fill-rule="evenodd" clip-rule="evenodd" d="M5.45349 30.9565L24.7236 2.37571C25.6547 0.994803 27.2112 0.166992 28.8767 0.166992H160.104C161.78 0.166992 163.345 1.00509 164.274 2.40007L183.285 30.9565H5.45349Z" fill="#FAF0E6"/>
</mask>
<g mask="url(#mask5_22_475)">
<path d="M88.5936 -64.2305L76.0429 34.3301L41.3436 31.0079L88.5936 -64.2305Z" fill="#564D4A"/>
<path d="M95.6074 -66.8145L112.957 33.2227L148.595 30.9566L95.6074 -66.8145Z" fill="#564D4A"/>
</g>
<path d="M197.6 138.895C194.187 138.895 190.901 138.255 187.744 136.975C184.587 135.695 181.984 133.733 179.936 131.087C177.973 128.442 176.992 125.071 176.992 120.975C176.992 115.685 178.656 111.546 181.984 108.559C185.312 105.487 190.005 103.311 196.064 102.031L217.696 97.1673V96.7833C217.696 92.2606 216.373 89.0179 213.728 87.0553C211.083 85.0073 207.243 83.9833 202.208 83.9833C199.392 83.9833 196.533 84.1966 193.632 84.6233C190.731 85.0499 188.085 85.5619 185.696 86.1593L182.624 86.9273L180.32 78.3513L183.52 77.1993C187.445 75.6633 191.2 74.5113 194.784 73.7433C198.453 72.9753 202.08 72.5913 205.664 72.5913C213.088 72.5913 219.104 74.5539 223.712 78.4793C228.32 82.4046 230.624 88.4206 230.624 96.5273V122.255C230.624 124.986 231.264 126.863 232.544 127.887C233.824 128.826 236.555 129.423 240.736 129.679L240.096 138.255C239.243 138.511 238.304 138.682 237.28 138.767C236.341 138.853 235.488 138.895 234.72 138.895C230.368 138.895 226.955 137.957 224.48 136.079C222.091 134.117 220.427 131.685 219.488 128.783L216.544 131.343C213.643 133.903 210.528 135.823 207.2 137.103C203.872 138.298 200.672 138.895 197.6 138.895ZM201.696 128.015C203.659 128.015 205.707 127.631 207.84 126.863C209.973 126.01 212.149 124.815 214.368 123.279L217.696 120.975V105.103L198.112 110.479C194.955 111.418 192.736 112.613 191.456 114.063C190.261 115.514 189.664 117.306 189.664 119.439C189.664 122.17 190.731 124.303 192.864 125.839C194.997 127.29 197.941 128.015 201.696 128.015ZM251.475 137.999V73.6153H261.075L262.611 81.8073L267.603 78.3513C270.163 76.6446 272.936 75.2793 275.923 74.2553C278.91 73.1459 281.768 72.5913 284.499 72.5913C285.438 72.5913 286.376 72.7193 287.315 72.9753C288.254 73.2313 289.15 73.6579 290.003 74.2553V84.4953C287.187 84.5806 284.414 84.8793 281.683 85.3913C279.038 85.8179 275.966 86.7993 272.467 88.3353L264.531 91.4073V137.999H251.475ZM302.225 137.999V43.5353L315.281 39.4393V99.7273H324.113L344.337 73.6153H359.185L328.849 111.119H315.281V137.999H302.225ZM346.513 137.999L324.625 110.095L332.561 100.367L362.385 137.999H346.513ZM399.448 138.895C393.219 138.895 387.501 137.658 382.296 135.183C377.176 132.623 373.037 128.911 369.88 124.047C366.723 119.098 365.144 113.039 365.144 105.871C365.144 101.007 365.955 96.5273 367.576 92.4313C369.197 88.3353 371.501 84.8366 374.488 81.9353C377.475 78.9486 380.888 76.6446 384.728 75.0233C388.568 73.4019 392.749 72.5913 397.272 72.5913C403.672 72.5913 409.005 73.9993 413.272 76.8153C417.624 79.6313 420.867 83.4713 423 88.3353C425.219 93.1139 426.328 98.5326 426.328 104.591V108.815H378.584C379.096 112.997 380.333 116.495 382.296 119.311C384.344 122.042 386.947 124.09 390.104 125.455C393.261 126.821 396.76 127.503 400.6 127.503C402.989 127.503 405.421 127.29 407.896 126.863C410.371 126.437 412.888 125.882 415.448 125.199L420.952 123.407L424.536 131.983L419.544 134.415C416.301 135.866 412.931 136.975 409.432 137.743C406.019 138.511 402.691 138.895 399.448 138.895ZM379.096 99.2153H413.912C413.315 94.4366 411.608 90.6819 408.792 87.9513C406.061 85.1353 402.221 83.7273 397.272 83.7273C394.2 83.7273 391.384 84.3673 388.824 85.6473C386.349 86.8419 384.259 88.6339 382.552 91.0233C380.931 93.3273 379.779 96.0579 379.096 99.2153ZM465.423 138.895C459.194 138.895 454.5 137.573 451.343 134.927C448.271 132.282 446.735 128.015 446.735 122.127V85.0073H432.655V76.0473L446.735 73.6153V58.2553L459.791 53.6473V73.6153H481.551V85.0073H459.791V118.031C459.791 121.359 460.388 123.834 461.583 125.455C462.863 126.991 465.551 127.759 469.647 127.759C470.842 127.759 472.122 127.717 473.487 127.631C474.852 127.461 476.26 127.29 477.711 127.119L481.167 126.607L482.703 135.951L479.631 136.847C477.412 137.445 475.023 137.914 472.463 138.255C469.903 138.682 467.556 138.895 465.423 138.895ZM497.267 137.999V48.3993H510.835V85.7753H560.115V48.3993H573.683V137.999H560.115V97.6793H510.835V137.999H497.267ZM614.693 138.895C607.525 138.895 602.234 136.933 598.821 133.007C595.493 129.082 593.829 123.834 593.829 117.263V73.6153H606.757V114.191C606.757 118.629 607.824 121.914 609.957 124.047C612.176 126.095 615.376 127.119 619.557 127.119C621.434 127.119 623.269 126.863 625.061 126.351C626.853 125.839 628.73 125.114 630.693 124.175L635.813 121.871V73.6153H648.869V137.999H638.885L637.349 128.015L640.037 130.063L633.253 133.647C630.01 135.439 626.81 136.762 623.653 137.615C620.581 138.469 617.594 138.895 614.693 138.895ZM701.124 138.895C698.308 138.895 695.364 138.383 692.292 137.359C689.305 136.335 686.319 134.842 683.332 132.879L677.956 129.423L680.644 120.463L686.532 123.791C688.665 124.986 690.671 125.839 692.548 126.351C694.425 126.863 696.303 127.119 698.18 127.119C702.02 127.119 705.305 126.266 708.036 124.559C710.852 122.853 713.028 120.421 714.564 117.263C716.1 114.106 716.868 110.266 716.868 105.743C716.868 101.391 716.1 97.6366 714.564 94.4793C713.028 91.2366 710.809 88.7619 707.908 87.0553C705.092 85.3486 701.636 84.4953 697.54 84.4953C695.833 84.4953 694.041 84.7086 692.164 85.1353C690.372 85.4766 688.324 86.1166 686.02 87.0553L681.156 88.9753V124.559L679.748 126.735L677.956 137.999H668.1V43.5353L681.156 39.4393V83.4713L677.444 80.1433L685.124 76.5593C687.599 75.3646 690.201 74.4259 692.932 73.7433C695.748 72.9753 698.479 72.5913 701.124 72.5913C706.756 72.5913 711.748 74.0419 716.1 76.9433C720.537 79.7593 723.951 83.6846 726.34 88.7193C728.815 93.6686 730.052 99.3433 730.052 105.743C730.052 112.143 728.815 117.861 726.34 122.895C723.951 127.93 720.58 131.855 716.228 134.671C711.876 137.487 706.841 138.895 701.124 138.895Z" fill="#F7F4F3"/>
</g>
<defs>
<filter id="filter0_d_22_475" x="1.45349" y="0" width="732.599" height="146.895" filterUnits="userSpaceOnUse" color-interpolation-filters="sRGB">
<feFlood flood-opacity="0" result="BackgroundImageFix"/>
<feColorMatrix in="SourceAlpha" type="matrix" values="0 0 0 0 0 0 0 0 0 0 0 0 0 0 0 0 0 0 127 0" result="hardAlpha"/>
<feOffset dy="4"/>
<feGaussianBlur stdDeviation="2"/>
<feComposite in2="hardAlpha" operator="out"/>
<feColorMatrix type="matrix" values="0 0 0 0 0 0 0 0 0 0 0 0 0 0 0 0 0 0 0.25 0"/>
<feBlend mode="normal" in2="BackgroundImageFix" result="effect1_dropShadow_22_475"/>
<feBlend mode="normal" in="SourceGraphic" in2="effect1_dropShadow_22_475" result="shape"/>
</filter>
</defs>
</svg>
