<svg width="51" height="51" viewBox="0 0 51 51" fill="none" xmlns="http://www.w3.org/2000/svg">
<path fill-rule="evenodd" clip-rule="evenodd" d="M30.5685 32.8222C24.9366 37.3329 16.6929 36.9779 11.4722 31.7572C5.8706 26.1556 5.8706 17.0736 11.4722 11.4721C17.0738 5.87048 26.1557 5.87048 31.7573 11.4721C36.978 16.6927 37.333 24.9365 32.8224 30.5683L43.7781 41.524C44.4005 42.1464 44.4005 43.1555 43.7781 43.7779C43.1557 44.4003 42.1466 44.4003 41.5242 43.7779L30.5685 32.8222ZM13.7261 29.5033C9.3693 25.1465 9.3693 18.0828 13.7261 13.726C18.0829 9.36918 25.1466 9.36918 29.5034 13.726C33.857 18.0796 33.8602 25.1361 29.513 29.4937C29.5098 29.4968 29.5066 29.5 29.5034 29.5032C29.5002 29.5064 29.497 29.5096 29.4938 29.5129C25.1363 33.8601 18.0797 33.8569 13.7261 29.5033Z" fill="#FAF0E6"/>
</svg>
