<svg width="68" height="68" viewBox="0 0 68 68" fill="none" xmlns="http://www.w3.org/2000/svg">
<path d="M20.314 62.2625C18.9073 62.2625 17.7081 61.7616 16.7165 60.7599C15.7248 59.7582 15.229 58.554 15.229 57.1474C15.229 55.7408 15.7298 54.5416 16.7315 53.55C17.7332 52.5583 18.9374 52.0625 20.344 52.0625C21.7506 52.0625 22.9498 52.5633 23.9415 53.565C24.9331 54.5667 25.429 55.7709 25.429 57.1775C25.429 58.5841 24.9281 59.7833 23.9265 60.775C22.9247 61.7666 21.7206 62.2625 20.314 62.2625ZM48.6473 62.2625C47.2406 62.2625 46.0415 61.7616 45.0498 60.7599C44.0581 59.7582 43.5623 58.554 43.5623 57.1474C43.5623 55.7408 44.0631 54.5416 45.0648 53.55C46.0665 52.5583 47.2707 52.0625 48.6773 52.0625C50.084 52.0625 51.2831 52.5633 52.2748 53.565C53.2665 54.5667 53.7623 55.7709 53.7623 57.1775C53.7623 58.5841 53.2615 59.7833 52.2598 60.775C51.2581 61.7666 50.0539 62.2625 48.6473 62.2625ZM14.5206 11.2625H56.2467C57.3311 11.2625 58.1562 11.7583 58.722 12.75C59.2878 13.7416 59.2873 14.7333 58.7206 15.725L49.1581 32.9375C48.6387 33.8347 47.9644 34.5548 47.1352 35.0979C46.306 35.6409 45.3983 35.9125 44.4123 35.9125H22.9498L18.9831 43.2791H53.7623V47.5291H19.6206C17.6373 47.5291 16.2088 46.868 15.3352 45.5458C14.4616 44.2236 14.4734 42.7361 15.3706 41.0833L19.904 32.725L9.1373 9.91663H3.6123V5.66663H11.8998L14.5206 11.2625Z" fill="#5C5470"/>
</svg>
