<svg width="24" height="23" viewBox="0 0 24 23" fill="none" xmlns="http://www.w3.org/2000/svg">
<path d="M10.1161 2.28659C10.7474 0.515083 13.2526 0.515085 13.8839 2.28659L15.3433 6.38161C15.6272 7.17827 16.3815 7.71024 17.2272 7.71024H21.5273C23.5091 7.71024 24.284 10.2831 22.6318 11.3776L19.4805 13.4652C18.714 13.9729 18.3924 14.9378 18.701 15.8039L19.9779 19.3869C20.6231 21.1975 18.5919 22.7872 16.9894 21.7256L13.1045 19.1521C12.435 18.7086 11.565 18.7086 10.8955 19.1521L7.01058 21.7256C5.40815 22.7872 3.37688 21.1975 4.02212 19.3869L5.29899 15.8039C5.60762 14.9378 5.28604 13.9729 4.51955 13.4652L1.3682 11.3776C-0.284021 10.2831 0.490856 7.71024 2.47271 7.71024H6.77279C7.61852 7.71024 8.37284 7.17827 8.65674 6.38161L10.1161 2.28659Z" fill="#564D4A"/>
</svg>
