<svg width="79" height="79" viewBox="0 0 79 79" fill="none" xmlns="http://www.w3.org/2000/svg">
<path fill-rule="evenodd" clip-rule="evenodd" d="M16.4585 53.4892C17.8219 53.4892 18.9272 54.5945 18.9272 55.9579V62.5413C18.9272 62.9957 19.2957 63.3642 19.7502 63.3642H59.2502C59.7046 63.3642 60.0731 62.9957 60.0731 62.5413V55.9579C60.0731 54.5945 61.1784 53.4892 62.5418 53.4892C63.9053 53.4892 65.0106 54.5945 65.0106 55.9579V62.5413C65.0106 65.7226 62.4315 68.3017 59.2502 68.3017H19.7502C16.5688 68.3017 13.9897 65.7226 13.9897 62.5413V55.9579C13.9897 54.5945 15.095 53.4892 16.4585 53.4892Z" fill="#5C5470"/>
<path fill-rule="evenodd" clip-rule="evenodd" d="M35.3456 53.0851C33.6524 53.0851 32.24 51.7911 32.0921 50.1044C31.5864 44.3351 31.4972 38.5373 31.8249 32.7563C31.012 32.7114 30.1993 32.6593 29.387 32.6001L24.4839 32.2427C22.5935 32.1049 21.5367 29.9971 22.5573 28.3999C26.0532 22.9288 30.5578 18.1726 35.8309 14.3847L37.7953 12.9737C38.814 12.2418 40.1862 12.2419 41.205 12.9737L43.1694 14.3847C48.4425 18.1726 52.947 22.9288 56.4429 28.3999C57.4635 29.9971 56.4067 32.1049 54.5163 32.2427L49.6132 32.6001C48.8009 32.6593 47.9883 32.7114 47.1753 32.7563C47.5031 38.5373 47.4139 44.3351 46.9081 50.1044C46.7602 51.7911 45.3478 53.0851 43.6547 53.0851H35.3456Z" fill="#5C5470"/>
</svg>
