<svg width="68" height="68" viewBox="0 0 68 68" fill="none" xmlns="http://www.w3.org/2000/svg">
<path d="M15.7248 49.9375C18.6998 48.0486 21.6394 46.6201 24.5436 45.652C27.4478 44.684 30.5998 44.2 33.9998 44.2C37.3998 44.2 40.5637 44.684 43.4915 45.652C46.4193 46.6201 49.3707 48.0486 52.3457 49.9375C54.4234 47.3875 55.8991 44.8138 56.7728 42.2166C57.6464 39.6194 58.0832 36.8805 58.0832 34C58.0832 27.1527 55.7811 21.427 51.1769 16.8229C46.5728 12.2187 40.8471 9.91663 33.9998 9.91663C27.1526 9.91663 21.4269 12.2187 16.8228 16.8229C12.2186 21.427 9.9165 27.1527 9.9165 34C9.9165 36.8805 10.3651 39.6194 11.2623 42.2166C12.1596 44.8138 13.6471 47.3875 15.7248 49.9375ZM33.9867 36.125C31.2566 36.125 28.9589 35.1879 27.0936 33.3139C25.2283 31.4398 24.2957 29.1377 24.2957 26.4076C24.2957 23.6775 25.2327 21.3798 27.1068 19.5145C28.9808 17.6493 31.2829 16.7166 34.013 16.7166C36.7431 16.7166 39.0408 17.6537 40.9061 19.5277C42.7714 21.4018 43.704 23.7039 43.704 26.434C43.704 29.1641 42.767 31.4618 40.8929 33.327C39.0189 35.1923 36.7168 36.125 33.9867 36.125ZM33.9711 62.3333C30.0448 62.3333 26.355 61.5895 22.9017 60.102C19.4484 58.6145 16.4444 56.584 13.8899 54.0104C11.3354 51.4368 9.32623 48.4301 7.86234 44.9904C6.39845 41.5507 5.6665 37.8754 5.6665 33.9645C5.6665 30.0536 6.41025 26.3784 7.89775 22.9387C9.38525 19.499 11.4158 16.5041 13.9894 13.9541C16.563 11.4041 19.5697 9.38538 23.0094 7.89788C26.4491 6.41038 30.1244 5.66663 34.0353 5.66663C37.9462 5.66663 41.6214 6.41038 45.0611 7.89788C48.5008 9.38538 51.4957 11.4041 54.0457 13.9541C56.5957 16.5041 58.6144 19.5027 60.1019 22.95C61.5894 26.3972 62.3332 30.0742 62.3332 33.9811C62.3332 37.888 61.5894 41.5595 60.1019 44.9957C58.6144 48.4319 56.5957 51.4368 54.0457 54.0104C51.4957 56.584 48.494 58.6145 45.0407 60.102C41.5874 61.5895 37.8975 62.3333 33.9711 62.3333Z" fill="#5C5470"/>
</svg>
