<svg width="57" height="57" viewBox="0 0 57 57" fill="none" xmlns="http://www.w3.org/2000/svg">
<path d="M17.2642 51.4016C16.1029 51.4016 15.1129 50.9881 14.2943 50.1612C13.4756 49.3342 13.0662 48.3401 13.0662 47.1788C13.0662 46.0176 13.4797 45.0276 14.3067 44.2089C15.1336 43.3903 16.1277 42.9809 17.289 42.9809C18.4502 42.9809 19.4402 43.3944 20.2589 44.2213C21.0775 45.0483 21.4869 46.0424 21.4869 47.2036C21.4869 48.3649 21.0734 49.3549 20.2465 50.1736C19.4195 50.9922 18.4254 51.4016 17.2642 51.4016ZM40.6548 51.4016C39.4936 51.4016 38.5036 50.9881 37.6849 50.1612C36.8662 49.3342 36.4569 48.3401 36.4569 47.1788C36.4569 46.0176 36.8704 45.0276 37.6973 44.2089C38.5243 43.3903 39.5184 42.9809 40.6796 42.9809C41.8409 42.9809 42.8309 43.3944 43.6495 44.2213C44.4682 45.0483 44.8775 46.0424 44.8775 47.2036C44.8775 48.3649 44.4641 49.3549 43.6371 50.1736C42.8102 50.9922 41.8161 51.4016 40.6548 51.4016ZM12.4815 9.29837H46.9286C47.8238 9.29837 48.505 9.7077 48.972 10.5264C49.4391 11.3451 49.4387 12.1637 48.9709 12.9824L41.0766 27.1922C40.6477 27.9329 40.0911 28.5274 39.4065 28.9758C38.722 29.4241 37.9727 29.6482 37.1586 29.6482H19.4402L16.1655 35.7298H44.8775V39.2384H16.6918C15.0545 39.2384 13.8752 38.6926 13.154 37.6011C12.4327 36.5095 12.4425 35.2815 13.1832 33.917L16.9257 27.0168L8.03725 8.18731H3.47607V4.67871H10.3178L12.4815 9.29837Z" fill="#F7F4F3"/>
</svg>
