<svg width="57" height="57" viewBox="0 0 57 57" fill="none" xmlns="http://www.w3.org/2000/svg">
<path d="M4.67822 51.46V8.18731C4.67822 7.25168 5.02908 6.43301 5.7308 5.73129C6.43252 5.02957 7.2512 4.67871 8.18682 4.67871H47.9509C48.8866 4.67871 49.7052 5.02957 50.407 5.73129C51.1087 6.43301 51.4595 7.25168 51.4595 8.18731V38.5952C51.4595 39.5308 51.1087 40.3495 50.407 41.0512C49.7052 41.7529 48.8866 42.1038 47.9509 42.1038H14.0345L4.67822 51.46ZM14.0345 32.806H32.3377V29.2974H14.0345V32.806ZM14.0345 25.204H42.1033V21.6954H14.0345V25.204ZM14.0345 17.6021H42.1033V14.0935H14.0345V17.6021Z" fill="#F7F4F3"/>
</svg>
