<svg width="66" height="66" viewBox="0 0 66 66" fill="none" xmlns="http://www.w3.org/2000/svg">
<path fill-rule="evenodd" clip-rule="evenodd" d="M13.8628 44.1586C14.9884 44.1586 15.9009 45.0711 15.9009 46.1967V51.6316C15.9009 52.0068 16.205 52.3109 16.5802 52.3109H49.1896C49.5648 52.3109 49.8689 52.0068 49.8689 51.6316V46.1967C49.8689 45.0711 50.7814 44.1586 51.907 44.1586C53.0326 44.1586 53.9451 45.0711 53.9451 46.1967V51.6316C53.9451 54.258 51.816 56.3871 49.1896 56.3871H16.5802C13.9538 56.3871 11.8247 54.258 11.8247 51.6316V46.1967C11.8247 45.0711 12.7372 44.1586 13.8628 44.1586Z" fill="#F7F4F3"/>
<path fill-rule="evenodd" clip-rule="evenodd" d="M29.4551 43.8251C28.0573 43.8251 26.8913 42.7568 26.7692 41.3643C26.3517 36.6014 26.278 31.8151 26.5486 27.0426C25.8775 27.0055 25.2066 26.9625 24.536 26.9136L20.4882 26.6186C18.9276 26.5048 18.0552 24.7646 18.8977 23.4461C21.7838 18.9294 25.5025 15.0029 29.8557 11.8758L31.4774 10.7109C32.3185 10.1068 33.4513 10.1068 34.2923 10.7109L35.914 11.8758C40.2672 15.0029 43.986 18.9294 46.872 23.4461C47.7146 24.7646 46.8422 26.5048 45.2816 26.6185L41.2338 26.9136C40.5632 26.9625 39.8923 27.0055 39.2211 27.0426C39.4917 31.8151 39.4181 36.6014 39.0006 41.3643C38.8785 42.7568 37.7125 43.8251 36.3147 43.8251H29.4551Z" fill="#F7F4F3"/>
</svg>
