<svg width="57" height="57" viewBox="0 0 57 57" fill="none" xmlns="http://www.w3.org/2000/svg">
<path d="M13.1196 41.2266C15.5756 39.6672 18.0024 38.488 20.3999 37.6888C22.7975 36.8896 25.3997 36.49 28.2066 36.49C31.0135 36.49 33.6254 36.8896 36.0425 37.6888C38.4595 38.488 40.896 39.6672 43.352 41.2266C45.0673 39.1215 46.2856 36.9968 47.0068 34.8527C47.728 32.7085 48.0886 30.4474 48.0886 28.0694C48.0886 22.4166 46.1882 17.6898 42.3872 13.8888C38.5862 10.0878 33.8593 8.18731 28.2066 8.18731C22.5538 8.18731 17.827 10.0878 14.026 13.8888C10.225 17.6898 8.32452 22.4166 8.32452 28.0694C8.32452 30.4474 8.69487 32.7085 9.43557 34.8527C10.1763 36.9968 11.4043 39.1215 13.1196 41.2266ZM28.1957 29.8237C25.9419 29.8237 24.045 29.0501 22.5051 27.503C20.9652 25.9558 20.1953 24.0553 20.1953 21.8015C20.1953 19.5477 20.9688 17.6508 22.516 16.1109C24.0631 14.571 25.9636 13.8011 28.2175 13.8011C30.4713 13.8011 32.3682 14.5746 33.9081 16.1218C35.4479 17.6689 36.2179 19.5694 36.2179 21.8232C36.2179 24.0771 35.4443 25.974 33.8972 27.5138C32.35 29.0537 30.4496 29.8237 28.1957 29.8237ZM28.1829 51.46C24.9415 51.46 21.8954 50.846 19.0445 49.618C16.1936 48.39 13.7137 46.7137 11.6048 44.589C9.4959 42.4644 7.83721 39.9822 6.62869 37.1426C5.42018 34.3029 4.81592 31.2688 4.81592 28.0401C4.81592 24.8115 5.42992 21.7773 6.65793 18.9377C7.88594 16.0981 9.56227 13.6256 11.6869 11.5205C13.8116 9.41532 16.2937 7.74874 19.1334 6.52073C21.973 5.29272 25.0072 4.67871 28.2358 4.67871C31.4645 4.67871 34.4986 5.29272 37.3382 6.52073C40.1779 7.74874 42.6503 9.41532 44.7555 11.5205C46.8606 13.6256 48.5272 16.1012 49.7552 18.947C50.9832 21.7929 51.5972 24.8285 51.5972 28.0538C51.5972 31.2792 50.9832 34.3102 49.7552 37.1469C48.5272 39.9837 46.8606 42.4644 44.7555 44.589C42.6503 46.7137 40.1723 48.39 37.3214 49.618C34.4705 50.846 31.4243 51.46 28.1829 51.46Z" fill="#F7F4F3"/>
</svg>
