<svg width="42" height="42" viewBox="0 0 42 42" fill="none" xmlns="http://www.w3.org/2000/svg">
<path fill-rule="evenodd" clip-rule="evenodd" d="M25.3615 27.3081C20.8197 30.9457 14.1715 30.6594 9.9613 26.4492C5.44389 21.9318 5.44389 14.6076 9.9613 10.0902C14.4787 5.5728 21.8029 5.5728 26.3203 10.0902C30.5305 14.3004 30.8168 20.9486 27.1792 25.4904L36.0144 34.3257C36.5164 34.8276 36.5164 35.6414 36.0144 36.1433C35.5125 36.6453 34.6987 36.6453 34.1968 36.1433L25.3615 27.3081ZM11.779 24.6315C8.26542 21.118 8.26542 15.4214 11.779 11.9079C15.2925 8.39433 20.9891 8.39433 24.5026 11.9079C28.0136 15.4188 28.0161 21.1096 24.5103 24.6238C24.5077 24.6263 24.5052 24.6289 24.5026 24.6315C24.5 24.634 24.4974 24.6366 24.4949 24.6392C20.9807 28.145 15.2899 28.1425 11.779 24.6315Z" fill="#564D4A"/>
</svg>
