<svg width="42" height="42" viewBox="0 0 42 42" fill="none" xmlns="http://www.w3.org/2000/svg">
<path fill-rule="evenodd" clip-rule="evenodd" d="M25.3605 27.3081C20.8188 30.9457 14.1705 30.6594 9.96032 26.4492C5.44291 21.9318 5.44291 14.6076 9.96032 10.0902C14.4777 5.5728 21.8019 5.5728 26.3193 10.0902C30.5295 14.3004 30.8158 20.9486 27.1782 25.4904L36.0135 34.3257C36.5154 34.8276 36.5154 35.6414 36.0135 36.1433C35.5115 36.6453 34.6977 36.6453 34.1958 36.1433L25.3605 27.3081ZM11.778 24.6315C8.26445 21.118 8.26445 15.4214 11.778 11.9079C15.2915 8.39433 20.9881 8.39433 24.5016 11.9079C28.0126 15.4188 28.0152 21.1096 24.5094 24.6238C24.5068 24.6263 24.5042 24.6289 24.5016 24.6315C24.499 24.634 24.4965 24.6366 24.4939 24.6392C20.9797 28.145 15.2889 28.1425 11.778 24.6315Z" fill="#F7F4F3"/>
</svg>
